<svg width="458" height="418" viewBox="0 0 458 418" fill="none" xmlns="http://www.w3.org/2000/svg">
<g filter="url(#filter0_d_1_6702)">
<rect x="4" width="450" height="410" rx="10" fill="white"/>
<path d="M4 10C4 4.47715 8.47715 0 14 0H444C449.523 0 454 4.47715 454 10V230H4V10Z" fill="#001E36"/>
<path d="M31.5269 280L37.6548 262.324H42.3667L48.4702 280H44.5396L43.209 275.923H36.8125L35.4819 280H31.5269ZM42.2812 273.066L40.0718 266.304H39.9497L37.7402 273.066H42.2812ZM54.6714 280.22C53.646 280.22 52.7264 279.955 51.9126 279.426C51.0988 278.889 50.4559 278.108 49.9839 277.083C49.5119 276.049 49.2759 274.816 49.2759 273.384C49.2759 271.919 49.516 270.678 49.9961 269.661C50.4762 268.635 51.1232 267.866 51.937 267.354C52.759 266.833 53.6704 266.572 54.6714 266.572C55.6724 266.572 56.474 266.804 57.0762 267.268C57.6865 267.732 58.1382 268.298 58.4312 268.965H58.5532V262.324H62.1665V280H58.6021V277.876H58.4312C58.13 278.535 57.6743 279.093 57.064 279.548C56.4536 279.996 55.6561 280.22 54.6714 280.22ZM52.9868 273.323C52.9868 274.535 53.2269 275.508 53.707 276.24C54.1953 276.965 54.8911 277.331 55.7944 277.339C56.3885 277.339 56.8971 277.176 57.3203 276.851C57.7435 276.517 58.0649 276.053 58.2847 275.459C58.5125 274.857 58.6265 274.157 58.6265 273.359C58.6265 272.155 58.3783 271.203 57.8818 270.503C57.3854 269.803 56.6896 269.453 55.7944 269.453C54.8993 269.453 54.2075 269.807 53.7192 270.515C53.231 271.215 52.9868 272.151 52.9868 273.323ZM71.0288 280.269C69.7104 280.269 68.5589 279.984 67.5742 279.414C66.5977 278.836 65.8449 278.031 65.3159 276.997C64.7951 275.964 64.5347 274.767 64.5347 273.408C64.5347 272.049 64.7951 270.857 65.3159 269.832C65.8449 268.798 66.5977 267.996 67.5742 267.427C68.5589 266.857 69.7104 266.572 71.0288 266.572C72.3472 266.572 73.4946 266.857 74.4712 267.427C75.4559 267.996 76.2127 268.798 76.7417 269.832C77.2788 270.857 77.5474 272.049 77.5474 273.408C77.5474 274.767 77.2788 275.964 76.7417 276.997C76.2127 278.031 75.4559 278.836 74.4712 279.414C73.4946 279.984 72.3472 280.269 71.0288 280.269ZM68.1968 273.408C68.1968 274.198 68.3026 274.897 68.5142 275.508C68.7339 276.11 69.0594 276.586 69.4907 276.936C69.922 277.286 70.4429 277.461 71.0532 277.461C71.6473 277.461 72.1559 277.29 72.5791 276.948C73.0023 276.598 73.3197 276.122 73.5312 275.52C73.751 274.918 73.8608 274.23 73.8608 273.457C73.8608 272.66 73.755 271.951 73.5435 271.333C73.3319 270.706 73.0145 270.218 72.5913 269.868C72.1681 269.51 71.6554 269.331 71.0532 269.331C70.4429 269.331 69.922 269.506 69.4907 269.856C69.0594 270.206 68.7339 270.69 68.5142 271.309C68.3026 271.919 68.1968 272.619 68.1968 273.408ZM79.8911 262.324H83.5044V268.965H83.6021C83.9113 268.298 84.367 267.732 84.9692 267.268C85.5715 266.804 86.3771 266.572 87.3862 266.572C88.3872 266.572 89.2946 266.833 90.1084 267.354C90.9222 267.866 91.5692 268.635 92.0493 269.661C92.5376 270.678 92.7817 271.919 92.7817 273.384C92.7817 274.816 92.5457 276.049 92.0737 277.083C91.6017 278.108 90.9588 278.889 90.145 279.426C89.3312 279.955 88.4116 280.22 87.3862 280.22C86.4015 280.22 85.604 279.996 84.9937 279.548C84.3833 279.093 83.9194 278.535 83.6021 277.876H83.4556V280H79.8911V262.324ZM83.4312 273.323C83.4312 274.128 83.541 274.832 83.7607 275.435C83.9805 276.037 84.3019 276.505 84.7251 276.838C85.1483 277.172 85.6528 277.339 86.2388 277.339C87.134 277.331 87.8298 276.969 88.3262 276.252C88.8226 275.536 89.0708 274.584 89.0708 273.396C89.0708 272.2 88.8267 271.243 88.3384 270.527C87.8501 269.811 87.1502 269.453 86.2388 269.453C85.3599 269.453 84.6722 269.803 84.1758 270.503C83.6794 271.195 83.4312 272.135 83.4312 273.323ZM101.107 280.269C99.7642 280.269 98.6004 279.992 97.6157 279.438C96.631 278.877 95.8742 278.083 95.3452 277.058C94.8244 276.033 94.564 274.824 94.564 273.433C94.564 272.082 94.8244 270.889 95.3452 269.856C95.8742 268.814 96.6229 268.009 97.5913 267.439C98.5597 266.861 99.6828 266.572 100.96 266.572C102.149 266.572 103.211 266.825 104.146 267.329C105.09 267.826 105.831 268.578 106.368 269.587C106.913 270.597 107.186 271.829 107.186 273.286V274.312H98.1284C98.1284 274.971 98.2505 275.544 98.4946 276.033C98.7469 276.521 99.1009 276.899 99.5566 277.168C100.021 277.428 100.562 277.559 101.18 277.559C101.782 277.55 102.299 277.428 102.73 277.192C103.162 276.948 103.467 276.623 103.646 276.216H107.088C106.917 277.038 106.568 277.754 106.039 278.364C105.51 278.966 104.822 279.434 103.976 279.768C103.137 280.102 102.181 280.269 101.107 280.269ZM103.768 272.041C103.768 271.512 103.65 271.036 103.414 270.613C103.186 270.19 102.865 269.864 102.45 269.636C102.035 269.4 101.563 269.282 101.034 269.282C100.497 269.282 100.008 269.404 99.5688 269.648C99.1375 269.893 98.7957 270.226 98.5435 270.649C98.2912 271.073 98.1528 271.536 98.1284 272.041H103.768ZM115.292 262.324H122.225C123.535 262.324 124.667 262.576 125.619 263.081C126.571 263.586 127.295 264.29 127.792 265.193C128.296 266.088 128.548 267.118 128.548 268.281C128.548 269.461 128.292 270.503 127.779 271.406C127.275 272.301 126.538 272.997 125.57 273.494C124.61 273.99 123.462 274.238 122.127 274.238H118.954V280H115.292V262.324ZM121.542 271.284C122.599 271.284 123.401 271.016 123.946 270.479C124.5 269.933 124.772 269.201 124.764 268.281C124.772 267.378 124.5 266.662 123.946 266.133C123.401 265.604 122.599 265.335 121.542 265.327H118.954V271.284H121.542ZM134.408 280H130.794V262.324H134.31V269.062H134.457C134.766 268.273 135.254 267.663 135.921 267.231C136.597 266.792 137.427 266.572 138.412 266.572C139.331 266.572 140.137 266.772 140.829 267.17C141.52 267.569 142.053 268.143 142.428 268.892C142.81 269.64 143.001 270.527 143.001 271.553V280H139.388V272.188C139.388 271.366 139.177 270.727 138.753 270.271C138.338 269.807 137.752 269.575 136.996 269.575C136.222 269.575 135.596 269.819 135.116 270.308C134.644 270.796 134.408 271.471 134.408 272.334V280ZM151.742 280.269C150.423 280.269 149.272 279.984 148.287 279.414C147.311 278.836 146.558 278.031 146.029 276.997C145.508 275.964 145.248 274.767 145.248 273.408C145.248 272.049 145.508 270.857 146.029 269.832C146.558 268.798 147.311 267.996 148.287 267.427C149.272 266.857 150.423 266.572 151.742 266.572C153.06 266.572 154.208 266.857 155.184 267.427C156.169 267.996 156.926 268.798 157.455 269.832C157.992 270.857 158.26 272.049 158.26 273.408C158.26 274.767 157.992 275.964 157.455 276.997C156.926 278.031 156.169 278.836 155.184 279.414C154.208 279.984 153.06 280.269 151.742 280.269ZM148.91 273.408C148.91 274.198 149.015 274.897 149.227 275.508C149.447 276.11 149.772 276.586 150.204 276.936C150.635 277.286 151.156 277.461 151.766 277.461C152.36 277.461 152.869 277.29 153.292 276.948C153.715 276.598 154.033 276.122 154.244 275.52C154.464 274.918 154.574 274.23 154.574 273.457C154.574 272.66 154.468 271.951 154.256 271.333C154.045 270.706 153.727 270.218 153.304 269.868C152.881 269.51 152.368 269.331 151.766 269.331C151.156 269.331 150.635 269.506 150.204 269.856C149.772 270.206 149.447 270.69 149.227 271.309C149.015 271.919 148.91 272.619 148.91 273.408ZM167.513 269.453H165.023V275.923C165.015 276.419 165.117 276.765 165.328 276.96C165.548 277.148 165.861 277.249 166.268 277.266C166.642 277.266 167.123 277.241 167.708 277.192V280.049C167.171 280.13 166.516 280.171 165.743 280.171C164.392 280.171 163.33 279.862 162.557 279.243C161.784 278.617 161.402 277.681 161.41 276.436V269.453H159.579V266.743H161.41V263.569H165.023V266.743H167.513V269.453ZM175.594 280.269C174.276 280.269 173.124 279.984 172.14 279.414C171.163 278.836 170.41 278.031 169.881 276.997C169.361 275.964 169.1 274.767 169.1 273.408C169.1 272.049 169.361 270.857 169.881 269.832C170.41 268.798 171.163 267.996 172.14 267.427C173.124 266.857 174.276 266.572 175.594 266.572C176.913 266.572 178.06 266.857 179.037 267.427C180.021 267.996 180.778 268.798 181.307 269.832C181.844 270.857 182.113 272.049 182.113 273.408C182.113 274.767 181.844 275.964 181.307 276.997C180.778 278.031 180.021 278.836 179.037 279.414C178.06 279.984 176.913 280.269 175.594 280.269ZM172.762 273.408C172.762 274.198 172.868 274.897 173.08 275.508C173.299 276.11 173.625 276.586 174.056 276.936C174.487 277.286 175.008 277.461 175.619 277.461C176.213 277.461 176.721 277.29 177.145 276.948C177.568 276.598 177.885 276.122 178.097 275.52C178.316 274.918 178.426 274.23 178.426 273.457C178.426 272.66 178.32 271.951 178.109 271.333C177.897 270.706 177.58 270.218 177.157 269.868C176.734 269.51 176.221 269.331 175.619 269.331C175.008 269.331 174.487 269.506 174.056 269.856C173.625 270.206 173.299 270.69 173.08 271.309C172.868 271.919 172.762 272.619 172.762 273.408ZM191.952 270.674C191.87 270.21 191.638 269.84 191.256 269.563C190.873 269.286 190.381 269.144 189.779 269.136C189.193 269.144 188.705 269.274 188.314 269.526C187.923 269.771 187.728 270.092 187.728 270.491C187.728 270.808 187.858 271.081 188.119 271.309C188.387 271.528 188.827 271.699 189.437 271.821L191.805 272.31C193.099 272.578 194.059 273.005 194.686 273.591C195.313 274.177 195.63 274.946 195.638 275.898C195.638 276.761 195.39 277.522 194.894 278.181C194.405 278.84 193.718 279.353 192.831 279.719C191.944 280.085 190.918 280.269 189.754 280.269C188.574 280.269 187.553 280.102 186.69 279.768C185.836 279.426 185.16 278.942 184.664 278.315C184.176 277.681 183.879 276.932 183.773 276.069H187.411C187.492 276.582 187.732 276.973 188.131 277.241C188.538 277.51 189.079 277.648 189.754 277.656C190.422 277.648 190.955 277.522 191.354 277.278C191.752 277.026 191.952 276.688 191.952 276.265C191.952 275.923 191.805 275.642 191.512 275.422C191.219 275.203 190.764 275.028 190.145 274.897L187.948 274.458C186.686 274.206 185.734 273.762 185.091 273.127C184.448 272.493 184.131 271.683 184.139 270.698C184.139 269.86 184.367 269.132 184.823 268.513C185.278 267.887 185.925 267.406 186.764 267.073C187.61 266.739 188.599 266.572 189.73 266.572C190.829 266.572 191.789 266.739 192.611 267.073C193.433 267.406 194.076 267.882 194.54 268.501C195.012 269.111 195.28 269.836 195.345 270.674H191.952ZM201.473 280H197.86V262.324H201.375V269.062H201.522C201.831 268.273 202.319 267.663 202.987 267.231C203.662 266.792 204.492 266.572 205.477 266.572C206.397 266.572 207.202 266.772 207.894 267.17C208.586 267.569 209.119 268.143 209.493 268.892C209.876 269.64 210.067 270.527 210.067 271.553V280H206.454V272.188C206.454 271.366 206.242 270.727 205.819 270.271C205.404 269.807 204.818 269.575 204.061 269.575C203.288 269.575 202.661 269.819 202.181 270.308C201.709 270.796 201.473 271.471 201.473 272.334V280ZM218.807 280.269C217.489 280.269 216.337 279.984 215.353 279.414C214.376 278.836 213.623 278.031 213.094 276.997C212.573 275.964 212.313 274.767 212.313 273.408C212.313 272.049 212.573 270.857 213.094 269.832C213.623 268.798 214.376 267.996 215.353 267.427C216.337 266.857 217.489 266.572 218.807 266.572C220.125 266.572 221.273 266.857 222.25 267.427C223.234 267.996 223.991 268.798 224.52 269.832C225.057 270.857 225.326 272.049 225.326 273.408C225.326 274.767 225.057 275.964 224.52 276.997C223.991 278.031 223.234 278.836 222.25 279.414C221.273 279.984 220.125 280.269 218.807 280.269ZM215.975 273.408C215.975 274.198 216.081 274.897 216.292 275.508C216.512 276.11 216.838 276.586 217.269 276.936C217.7 277.286 218.221 277.461 218.832 277.461C219.426 277.461 219.934 277.29 220.357 276.948C220.781 276.598 221.098 276.122 221.31 275.52C221.529 274.918 221.639 274.23 221.639 273.457C221.639 272.66 221.533 271.951 221.322 271.333C221.11 270.706 220.793 270.218 220.37 269.868C219.946 269.51 219.434 269.331 218.832 269.331C218.221 269.331 217.7 269.506 217.269 269.856C216.838 270.206 216.512 270.69 216.292 271.309C216.081 271.919 215.975 272.619 215.975 273.408ZM227.596 266.743H231.161V268.965H231.307C231.616 268.298 232.072 267.732 232.674 267.268C233.277 266.804 234.082 266.572 235.091 266.572C236.092 266.572 237 266.833 237.813 267.354C238.627 267.866 239.27 268.635 239.742 269.661C240.222 270.678 240.462 271.919 240.462 273.384C240.462 274.816 240.23 276.049 239.767 277.083C239.303 278.108 238.664 278.889 237.85 279.426C237.036 279.955 236.117 280.22 235.091 280.22C234.107 280.22 233.305 279.996 232.687 279.548C232.076 279.093 231.616 278.535 231.307 277.876H231.209V284.98H227.596V266.743ZM231.136 273.323C231.136 274.543 231.38 275.516 231.869 276.24C232.365 276.965 233.057 277.331 233.944 277.339C234.839 277.331 235.535 276.969 236.031 276.252C236.528 275.536 236.776 274.584 236.776 273.396C236.776 272.2 236.532 271.243 236.043 270.527C235.555 269.811 234.855 269.453 233.944 269.453C233.057 269.453 232.365 269.799 231.869 270.491C231.38 271.182 231.136 272.126 231.136 273.323ZM255.624 269.453H252.987V280H249.374V269.453H247.494V266.743H249.374V265.742C249.374 264.367 249.756 263.317 250.521 262.593C251.294 261.86 252.36 261.494 253.719 261.494C254.517 261.494 255.233 261.567 255.868 261.714V264.448C255.77 264.44 255.404 264.416 254.769 264.375C254.175 264.383 253.727 264.509 253.426 264.753C253.133 264.998 252.987 265.392 252.987 265.938V266.743H255.624V269.453ZM263.216 280.269C261.898 280.269 260.746 279.984 259.762 279.414C258.785 278.836 258.032 278.031 257.503 276.997C256.983 275.964 256.722 274.767 256.722 273.408C256.722 272.049 256.983 270.857 257.503 269.832C258.032 268.798 258.785 267.996 259.762 267.427C260.746 266.857 261.898 266.572 263.216 266.572C264.535 266.572 265.682 266.857 266.659 267.427C267.643 267.996 268.4 268.798 268.929 269.832C269.466 270.857 269.735 272.049 269.735 273.408C269.735 274.767 269.466 275.964 268.929 276.997C268.4 278.031 267.643 278.836 266.659 279.414C265.682 279.984 264.535 280.269 263.216 280.269ZM260.384 273.408C260.384 274.198 260.49 274.897 260.702 275.508C260.921 276.11 261.247 276.586 261.678 276.936C262.11 277.286 262.63 277.461 263.241 277.461C263.835 277.461 264.343 277.29 264.767 276.948C265.19 276.598 265.507 276.122 265.719 275.52C265.938 274.918 266.048 274.23 266.048 273.457C266.048 272.66 265.943 271.951 265.731 271.333C265.519 270.706 265.202 270.218 264.779 269.868C264.356 269.51 263.843 269.331 263.241 269.331C262.63 269.331 262.11 269.506 261.678 269.856C261.247 270.206 260.921 270.69 260.702 271.309C260.49 271.919 260.384 272.619 260.384 273.408ZM272.005 266.743H275.497V269.038H275.643C275.879 268.241 276.282 267.626 276.852 267.195C277.421 266.764 278.084 266.548 278.841 266.548C279.256 266.548 279.639 266.589 279.989 266.67V269.893C279.818 269.836 279.582 269.791 279.281 269.758C278.98 269.718 278.703 269.697 278.451 269.697C277.914 269.697 277.425 269.815 276.986 270.051C276.555 270.287 276.217 270.617 275.973 271.04C275.737 271.455 275.619 271.927 275.619 272.456V280H272.005V266.743ZM286.483 262.324H290.487L293.465 274.678H293.612L296.859 262.324H300.301L303.548 274.702H303.695L306.673 262.324H310.677L305.624 280H302.035L298.666 268.33H298.519L295.125 280H291.537L286.483 262.324ZM317.049 280.269C315.707 280.269 314.543 279.992 313.558 279.438C312.573 278.877 311.817 278.083 311.288 277.058C310.767 276.033 310.506 274.824 310.506 273.433C310.506 272.082 310.767 270.889 311.288 269.856C311.817 268.814 312.565 268.009 313.534 267.439C314.502 266.861 315.625 266.572 316.903 266.572C318.091 266.572 319.153 266.825 320.089 267.329C321.033 267.826 321.773 268.578 322.311 269.587C322.856 270.597 323.128 271.829 323.128 273.286V274.312H314.071C314.071 274.971 314.193 275.544 314.437 276.033C314.689 276.521 315.043 276.899 315.499 277.168C315.963 277.428 316.504 277.559 317.123 277.559C317.725 277.55 318.242 277.428 318.673 277.192C319.104 276.948 319.409 276.623 319.588 276.216H323.031C322.86 277.038 322.51 277.754 321.981 278.364C321.452 278.966 320.764 279.434 319.918 279.768C319.08 280.102 318.124 280.269 317.049 280.269ZM319.71 272.041C319.71 271.512 319.592 271.036 319.356 270.613C319.129 270.19 318.807 269.864 318.392 269.636C317.977 269.4 317.505 269.282 316.976 269.282C316.439 269.282 315.951 269.404 315.511 269.648C315.08 269.893 314.738 270.226 314.486 270.649C314.234 271.073 314.095 271.536 314.071 272.041H319.71ZM325.472 262.324H329.085V268.965H329.183C329.492 268.298 329.948 267.732 330.55 267.268C331.153 266.804 331.958 266.572 332.967 266.572C333.968 266.572 334.876 266.833 335.689 267.354C336.503 267.866 337.15 268.635 337.63 269.661C338.119 270.678 338.363 271.919 338.363 273.384C338.363 274.816 338.127 276.049 337.655 277.083C337.183 278.108 336.54 278.889 335.726 279.426C334.912 279.955 333.993 280.22 332.967 280.22C331.983 280.22 331.185 279.996 330.575 279.548C329.964 279.093 329.5 278.535 329.183 277.876H329.037V280H325.472V262.324ZM329.012 273.323C329.012 274.128 329.122 274.832 329.342 275.435C329.562 276.037 329.883 276.505 330.306 276.838C330.729 277.172 331.234 277.339 331.82 277.339C332.715 277.331 333.411 276.969 333.907 276.252C334.404 275.536 334.652 274.584 334.652 273.396C334.652 272.2 334.408 271.243 333.919 270.527C333.431 269.811 332.731 269.453 331.82 269.453C330.941 269.453 330.253 269.803 329.757 270.503C329.26 271.195 329.012 272.135 329.012 273.323ZM346.517 280V262.324H352.816C354.582 262.324 356.108 262.678 357.394 263.386C358.688 264.086 359.676 265.099 360.36 266.426C361.043 267.744 361.385 269.315 361.385 271.138C361.385 272.969 361.039 274.552 360.348 275.886C359.664 277.213 358.671 278.23 357.369 278.938C356.075 279.646 354.533 280 352.743 280H346.517ZM352.596 276.851C354.305 276.851 355.587 276.387 356.441 275.459C357.296 274.531 357.723 273.091 357.723 271.138C357.723 269.201 357.296 267.773 356.441 266.853C355.595 265.933 354.321 265.474 352.621 265.474H350.179V276.851H352.596ZM369.979 280.269C368.636 280.269 367.472 279.992 366.488 279.438C365.503 278.877 364.746 278.083 364.217 277.058C363.696 276.033 363.436 274.824 363.436 273.433C363.436 272.082 363.696 270.889 364.217 269.856C364.746 268.814 365.495 268.009 366.463 267.439C367.432 266.861 368.555 266.572 369.833 266.572C371.021 266.572 372.083 266.825 373.019 267.329C373.963 267.826 374.703 268.578 375.24 269.587C375.785 270.597 376.058 271.829 376.058 273.286V274.312H367C367 274.971 367.123 275.544 367.367 276.033C367.619 276.521 367.973 276.899 368.429 277.168C368.893 277.428 369.434 277.559 370.052 277.559C370.654 277.55 371.171 277.428 371.603 277.192C372.034 276.948 372.339 276.623 372.518 276.216H375.96C375.79 277.038 375.44 277.754 374.911 278.364C374.382 278.966 373.694 279.434 372.848 279.768C372.009 280.102 371.053 280.269 369.979 280.269ZM372.64 272.041C372.64 271.512 372.522 271.036 372.286 270.613C372.058 270.19 371.737 269.864 371.322 269.636C370.907 269.4 370.435 269.282 369.906 269.282C369.369 269.282 368.88 269.404 368.441 269.648C368.01 269.893 367.668 270.226 367.416 270.649C367.163 271.073 367.025 271.536 367 272.041H372.64ZM385.897 270.674C385.816 270.21 385.584 269.84 385.201 269.563C384.819 269.286 384.326 269.144 383.724 269.136C383.138 269.144 382.65 269.274 382.259 269.526C381.869 269.771 381.673 270.092 381.673 270.491C381.673 270.808 381.804 271.081 382.064 271.309C382.333 271.528 382.772 271.699 383.382 271.821L385.75 272.31C387.044 272.578 388.005 273.005 388.631 273.591C389.258 274.177 389.575 274.946 389.583 275.898C389.583 276.761 389.335 277.522 388.839 278.181C388.351 278.84 387.663 279.353 386.776 279.719C385.889 280.085 384.863 280.269 383.7 280.269C382.52 280.269 381.498 280.102 380.636 279.768C379.781 279.426 379.106 278.942 378.609 278.315C378.121 277.681 377.824 276.932 377.718 276.069H381.356C381.437 276.582 381.677 276.973 382.076 277.241C382.483 277.51 383.024 277.648 383.7 277.656C384.367 277.648 384.9 277.522 385.299 277.278C385.698 277.026 385.897 276.688 385.897 276.265C385.897 275.923 385.75 275.642 385.458 275.422C385.165 275.203 384.709 275.028 384.09 274.897L381.893 274.458C380.632 274.206 379.68 273.762 379.037 273.127C378.394 272.493 378.076 271.683 378.084 270.698C378.084 269.86 378.312 269.132 378.768 268.513C379.224 267.887 379.871 267.406 380.709 267.073C381.555 266.739 382.544 266.572 383.675 266.572C384.774 266.572 385.734 266.739 386.556 267.073C387.378 267.406 388.021 267.882 388.485 268.501C388.957 269.111 389.225 269.836 389.291 270.674H385.897ZM391.805 266.743H395.418V280H391.805V266.743ZM393.612 265.01C393.254 265.01 392.924 264.928 392.623 264.766C392.322 264.595 392.082 264.371 391.903 264.094C391.724 263.809 391.634 263.504 391.634 263.179C391.634 262.845 391.724 262.536 391.903 262.251C392.082 261.966 392.322 261.742 392.623 261.58C392.924 261.409 393.254 261.323 393.612 261.323C393.962 261.323 394.287 261.409 394.588 261.58C394.889 261.742 395.125 261.966 395.296 262.251C395.475 262.536 395.565 262.845 395.565 263.179C395.565 263.504 395.475 263.809 395.296 264.094C395.125 264.371 394.889 264.595 394.588 264.766C394.287 264.928 393.962 265.01 393.612 265.01ZM404.183 285.249C402.979 285.249 401.929 285.078 401.034 284.736C400.139 284.395 399.435 283.91 398.922 283.284C398.409 282.657 398.12 281.929 398.055 281.099H401.62C401.717 281.611 401.994 281.994 402.45 282.246C402.914 282.507 403.516 282.637 404.256 282.637C405.135 282.637 405.819 282.429 406.307 282.014C406.804 281.607 407.056 280.96 407.064 280.073V277.656H406.893C406.625 278.267 406.173 278.779 405.538 279.194C404.903 279.609 404.094 279.813 403.109 279.805C402.083 279.813 401.164 279.577 400.35 279.097C399.536 278.608 398.893 277.876 398.421 276.899C397.949 275.915 397.713 274.71 397.713 273.286C397.713 271.846 397.953 270.621 398.434 269.612C398.914 268.603 399.561 267.846 400.375 267.341C401.196 266.829 402.108 266.572 403.109 266.572C404.11 266.572 404.916 266.804 405.526 267.268C406.136 267.732 406.592 268.298 406.893 268.965H407.04V266.743H410.628V280.146C410.628 281.245 410.356 282.177 409.811 282.942C409.265 283.707 408.508 284.281 407.54 284.663C406.58 285.054 405.461 285.249 404.183 285.249ZM401.424 273.298C401.424 274.47 401.664 275.394 402.145 276.069C402.633 276.745 403.329 277.087 404.232 277.095C405.135 277.087 405.831 276.753 406.319 276.094C406.816 275.435 407.064 274.515 407.064 273.335C407.064 272.139 406.816 271.195 406.319 270.503C405.823 269.803 405.127 269.453 404.232 269.453C403.337 269.453 402.645 269.803 402.157 270.503C401.668 271.203 401.424 272.135 401.424 273.298ZM417.049 280H413.436V266.743H416.878V269.062H417.025C417.326 268.289 417.822 267.683 418.514 267.244C419.206 266.796 420.036 266.572 421.004 266.572C421.924 266.572 422.726 266.776 423.409 267.183C424.101 267.581 424.634 268.155 425.008 268.904C425.383 269.653 425.57 270.535 425.57 271.553V280H421.981V272.188C421.973 271.366 421.757 270.727 421.334 270.271C420.919 269.807 420.337 269.575 419.588 269.575C418.823 269.575 418.209 269.819 417.745 270.308C417.281 270.796 417.049 271.471 417.049 272.334V280Z" fill="black"/>
<path d="M78.4258 326.961H76.043V316.023H78.4258V326.961ZM62.8203 322.605C66.7526 322.605 69.7734 322.443 71.8828 322.117L72.0586 323.777C71.1081 323.986 70.0143 324.148 68.7773 324.266V326.863H66.3945V324.412C65.5612 324.445 64.4479 324.461 63.0547 324.461L62.8203 322.605ZM63.5625 319.285C63.5625 318.745 63.7253 318.276 64.0508 317.879C64.3763 317.475 64.832 317.166 65.418 316.951C66.0104 316.736 66.694 316.629 67.4688 316.629C68.2435 316.629 68.9271 316.736 69.5195 316.951C70.112 317.166 70.571 317.475 70.8965 317.879C71.2285 318.276 71.3945 318.745 71.3945 319.285C71.3945 319.812 71.2285 320.278 70.8965 320.682C70.571 321.085 70.112 321.401 69.5195 321.629C68.9271 321.85 68.2435 321.961 67.4688 321.961C66.7005 321.961 66.0202 321.85 65.4277 321.629C64.8353 321.401 64.3763 321.085 64.0508 320.682C63.7253 320.278 63.5625 319.812 63.5625 319.285ZM65.7305 327.527H68.1914V328.719H75.9453V327.527H78.4258V333.602H65.7305V327.527ZM65.8281 319.266C65.8281 319.891 66.375 320.21 67.4688 320.223C68.0091 320.216 68.4258 320.138 68.7188 319.988C69.0182 319.832 69.168 319.598 69.168 319.285C69.168 318.973 69.0182 318.738 68.7188 318.582C68.4193 318.426 68.0026 318.348 67.4688 318.348C66.9479 318.348 66.5443 318.426 66.2578 318.582C65.9714 318.738 65.8281 318.966 65.8281 319.266ZM75.9453 331.688V330.613H68.1914V331.688H75.9453ZM69.9688 324.676H72.6445V316.316H74.9883V326.941H72.6445V326.336H69.9688V324.676ZM95.1055 333.836H92.5859V316.023H95.1055V333.836ZM81.2969 317.586H89.9492V319.617H83.7969V327.488C85.4766 327.488 86.8568 327.456 87.9375 327.391C89.0247 327.319 90.1055 327.189 91.1797 327L91.4141 329.051C90.2487 329.272 89.0475 329.419 87.8105 329.49C86.5736 329.562 84.9167 329.598 82.8398 329.598H81.2969V317.586ZM104.07 320.867C104.064 321.798 104.227 322.732 104.559 323.67C104.891 324.607 105.382 325.464 106.033 326.238C106.691 327.013 107.488 327.618 108.426 328.055L107.039 330.008C106.082 329.565 105.249 328.924 104.539 328.084C103.829 327.238 103.266 326.261 102.85 325.154C102.439 326.365 101.867 327.436 101.131 328.367C100.402 329.292 99.5391 329.988 98.543 330.457L97.0977 328.484C98.0482 328.042 98.8587 327.413 99.5293 326.6C100.2 325.786 100.704 324.881 101.043 323.885C101.388 322.882 101.564 321.876 101.57 320.867V319.773H97.8008V317.742H107.645V319.773H104.07V320.867ZM109.031 316.023H111.531V322.801H114.148V324.891H111.531V333.797H109.031V316.023ZM129.676 328.816H127.176V316.043H129.676V328.816ZM115.066 321.648C115.066 320.796 115.281 320.027 115.711 319.344C116.141 318.66 116.723 318.13 117.459 317.752C118.201 317.368 119.025 317.176 119.93 317.176C120.828 317.176 121.648 317.368 122.391 317.752C123.133 318.13 123.719 318.66 124.148 319.344C124.578 320.027 124.793 320.796 124.793 321.648C124.793 322.514 124.578 323.292 124.148 323.982C123.719 324.666 123.133 325.2 122.391 325.584C121.648 325.968 120.828 326.16 119.93 326.16C119.025 326.16 118.201 325.968 117.459 325.584C116.717 325.2 116.131 324.666 115.701 323.982C115.278 323.292 115.066 322.514 115.066 321.648ZM117.508 321.648C117.501 322.13 117.602 322.55 117.811 322.908C118.019 323.26 118.305 323.53 118.67 323.719C119.041 323.901 119.461 323.992 119.93 323.992C120.385 323.992 120.792 323.901 121.15 323.719C121.515 323.53 121.801 323.26 122.01 322.908C122.225 322.55 122.332 322.13 122.332 321.648C122.332 321.18 122.225 320.77 122.01 320.418C121.801 320.066 121.515 319.799 121.15 319.617C120.786 319.428 120.379 319.337 119.93 319.344C119.461 319.337 119.041 319.428 118.67 319.617C118.305 319.799 118.019 320.066 117.811 320.418C117.602 320.77 117.501 321.18 117.508 321.648ZM117.762 327.527H120.281V331.492H130.145V333.484H117.762V327.527ZM147.488 333.797H145.105V316.023H147.488V333.797ZM132.234 323.719C132.234 322.41 132.391 321.271 132.703 320.301C133.022 319.331 133.471 318.589 134.051 318.074C134.637 317.553 135.32 317.293 136.102 317.293C136.811 317.293 137.439 317.505 137.986 317.928C138.54 318.351 138.986 318.963 139.324 319.764C139.669 320.558 139.887 321.505 139.979 322.605H141.434V316.277H143.777V332.977H141.434V324.578H139.998C139.926 325.73 139.721 326.73 139.383 327.576C139.044 328.416 138.592 329.061 138.025 329.51C137.465 329.959 136.824 330.184 136.102 330.184C135.32 330.184 134.637 329.923 134.051 329.402C133.471 328.875 133.022 328.126 132.703 327.156C132.391 326.18 132.234 325.034 132.234 323.719ZM134.539 323.719C134.533 325.066 134.663 326.085 134.93 326.775C135.203 327.459 135.594 327.794 136.102 327.781C136.616 327.794 137.013 327.462 137.293 326.785C137.579 326.108 137.723 325.109 137.723 323.787C137.723 322.413 137.583 321.378 137.303 320.682C137.023 319.985 136.622 319.637 136.102 319.637C135.594 319.637 135.203 319.982 134.93 320.672C134.663 321.362 134.533 322.378 134.539 323.719ZM168.895 325.145H166.395V316.023H168.895V325.145ZM154.266 322.84C154.656 322.84 155.294 322.833 156.18 322.82V319.012H154.734V317.117H164.402V319.012H162.938V322.557C163.693 322.498 164.409 322.43 165.086 322.352L165.203 324.129C162.443 324.572 158.888 324.793 154.539 324.793L154.266 322.84ZM156.805 325.848H168.895V330.594H159.305V331.707H169.383V333.68H156.844V328.816H166.434V327.781H156.805V325.848ZM158.562 322.771C159.435 322.745 160.092 322.723 160.535 322.703V319.012H158.562V322.771ZM187.527 331.727H171.258V329.676H174.891V325.32C174.188 324.897 173.644 324.376 173.26 323.758C172.876 323.133 172.684 322.436 172.684 321.668C172.684 320.724 172.97 319.891 173.543 319.168C174.116 318.445 174.907 317.885 175.916 317.488C176.932 317.085 178.081 316.883 179.363 316.883C180.639 316.883 181.785 317.085 182.801 317.488C183.816 317.885 184.614 318.445 185.193 319.168C185.773 319.891 186.062 320.724 186.062 321.668C186.056 322.423 185.867 323.107 185.496 323.719C185.125 324.331 184.598 324.848 183.914 325.271V329.676H187.527V331.727ZM175.145 321.668C175.145 322.241 175.317 322.739 175.662 323.162C176.014 323.585 176.505 323.911 177.137 324.139C177.775 324.367 178.517 324.48 179.363 324.48C180.197 324.48 180.932 324.367 181.57 324.139C182.208 323.911 182.706 323.585 183.064 323.162C183.423 322.739 183.602 322.241 183.602 321.668C183.602 321.082 183.423 320.577 183.064 320.154C182.713 319.731 182.218 319.409 181.58 319.188C180.942 318.96 180.203 318.849 179.363 318.855C178.517 318.855 177.775 318.966 177.137 319.188C176.505 319.409 176.014 319.731 175.662 320.154C175.317 320.577 175.145 321.082 175.145 321.668ZM181.395 329.676V326.219C180.743 326.349 180.066 326.414 179.363 326.414C178.68 326.414 178.009 326.352 177.352 326.229V329.676H181.395ZM202.645 321.492H205.047V323.523H202.645V329.305H200.145V316.043H202.645V321.492ZM188.543 317.898H192.586V316.004H195.066V317.898H199.09V319.871H188.543V317.898ZM189.402 323.934C189.402 323.257 189.588 322.658 189.959 322.137C190.337 321.616 190.861 321.212 191.531 320.926C192.202 320.639 192.964 320.496 193.816 320.496C194.669 320.496 195.424 320.639 196.082 320.926C196.746 321.212 197.264 321.616 197.635 322.137C198.006 322.658 198.191 323.257 198.191 323.934C198.191 324.611 198.006 325.206 197.635 325.721C197.27 326.229 196.756 326.626 196.092 326.912C195.428 327.192 194.669 327.332 193.816 327.332C192.957 327.332 192.192 327.192 191.521 326.912C190.857 326.626 190.337 326.225 189.959 325.711C189.588 325.197 189.402 324.604 189.402 323.934ZM191.121 328.289H193.602V331.492H203.289V333.484H191.121V328.289ZM191.844 323.934C191.837 324.415 192.013 324.786 192.371 325.047C192.729 325.307 193.211 325.438 193.816 325.438C194.428 325.438 194.917 325.307 195.281 325.047C195.646 324.786 195.828 324.415 195.828 323.934C195.828 323.452 195.646 323.077 195.281 322.811C194.917 322.537 194.428 322.397 193.816 322.391C193.211 322.397 192.729 322.537 192.371 322.811C192.013 323.077 191.837 323.452 191.844 323.934ZM225.379 333.797H222.859V316.023H225.379V333.797ZM210.496 328.758C212.013 328.042 213.263 327.244 214.246 326.365C215.236 325.486 215.991 324.513 216.512 323.445C217.039 322.371 217.371 321.167 217.508 319.832H211.453V317.879H220.047C220.04 319.78 219.783 321.508 219.275 323.064C218.768 324.62 217.905 326.049 216.688 327.352C215.477 328.654 213.849 329.786 211.805 330.75L210.496 328.758ZM237.117 316.492C237.117 317.085 237.348 317.654 237.811 318.201C238.273 318.748 238.956 319.217 239.861 319.607C240.766 319.998 241.857 320.262 243.133 320.398L242.312 322.273C240.789 322.104 239.471 321.746 238.357 321.199C237.244 320.652 236.398 319.965 235.818 319.139C235.232 319.965 234.386 320.652 233.279 321.199C232.173 321.746 230.867 322.104 229.363 322.273L228.523 320.398C229.799 320.262 230.89 319.998 231.795 319.607C232.706 319.217 233.393 318.748 233.855 318.201C234.318 317.654 234.552 317.085 234.559 316.492V316.121H237.117V316.492ZM227.723 323.016H243.934V324.969H237.059V326.141H241.961V330.73H232.059V331.805H242.43V333.68H229.617V328.973H239.5V328.035H229.598V326.141H234.559V324.969H227.723V323.016ZM261.258 324.91H245.008V322.957H261.258V324.91ZM246.883 325.965H259.246V330.613H249.344V331.707H259.715V333.641H246.902V328.836H256.785V327.84H246.883V325.965ZM247.039 316.375H259.188V318.367H249.52V320.027H259.324V321.98H247.039V316.375ZM270.398 316.277C271.759 316.277 272.921 316.395 273.885 316.629C274.855 316.863 275.594 317.208 276.102 317.664C276.609 318.113 276.863 318.66 276.863 319.305C276.863 319.962 276.609 320.519 276.102 320.975C275.594 321.424 274.858 321.766 273.895 322C272.931 322.234 271.766 322.352 270.398 322.352C269.031 322.352 267.863 322.234 266.893 322C265.923 321.766 265.184 321.424 264.676 320.975C264.168 320.519 263.914 319.962 263.914 319.305C263.914 318.66 264.168 318.113 264.676 317.664C265.184 317.208 265.923 316.863 266.893 316.629C267.863 316.395 269.031 316.277 270.398 316.277ZM262.293 323.191H278.504V325.164H262.293V323.191ZM264.168 326.199H276.531V330.73H266.629V331.805H277V333.68H264.188V328.992H274.07V328.016H264.168V326.199ZM266.531 319.305C266.525 319.734 266.834 320.044 267.459 320.232C268.09 320.421 269.07 320.516 270.398 320.516C271.733 320.516 272.713 320.421 273.338 320.232C273.969 320.044 274.285 319.734 274.285 319.305C274.285 318.497 272.99 318.094 270.398 318.094C269.103 318.094 268.133 318.198 267.488 318.406C266.844 318.608 266.525 318.908 266.531 319.305ZM299.07 326.727H296.57V316.023H299.07V326.727ZM284.266 324.52C285.21 324.214 286.004 323.777 286.648 323.211C287.293 322.638 287.775 321.993 288.094 321.277C288.413 320.555 288.576 319.812 288.582 319.051H284.93V317.059H294.695V319.051H291.121C291.128 319.773 291.284 320.473 291.59 321.15C291.902 321.821 292.374 322.426 293.006 322.967C293.644 323.501 294.428 323.908 295.359 324.188L294.09 326.121C293.12 325.815 292.28 325.359 291.57 324.754C290.867 324.148 290.311 323.432 289.9 322.605C289.484 323.51 288.911 324.295 288.182 324.959C287.452 325.617 286.577 326.115 285.555 326.453L284.266 324.52ZM286.844 327.508H299.07V333.797H296.57V329.5H286.844V327.508ZM316.453 325.75H313.973V322.039H311.16V320.008H313.973V316.023H316.453V325.75ZM301.375 324.109C302.273 323.81 303.035 323.39 303.66 322.85C304.285 322.303 304.76 321.688 305.086 321.004C305.411 320.32 305.597 319.604 305.643 318.855H302.078V316.824H311.727V318.855H308.201C308.24 319.539 308.413 320.203 308.719 320.848C309.031 321.486 309.487 322.062 310.086 322.576C310.685 323.09 311.414 323.491 312.273 323.777L311.043 325.691C310.086 325.379 309.262 324.92 308.572 324.314C307.889 323.709 307.348 322.996 306.951 322.176C306.541 323.094 305.975 323.888 305.252 324.559C304.536 325.229 303.667 325.73 302.645 326.062L301.375 324.109ZM304.598 326.434H307.059V328.113H313.973V326.434H316.453V333.602H304.598V326.434ZM313.973 331.609V330.027H307.059V331.609H313.973ZM332.43 326.023H323.895V317.488H332.43V326.023ZM325.945 327.723H328.426V331.492H338.113V333.484H325.945V327.723ZM329.969 324.07V319.48H326.355V324.07H329.969ZM334.969 316.023H337.469V321.141H339.871V323.191H337.469V328.992H334.969V316.023ZM356.902 324.91H340.652V322.957H356.902V324.91ZM342.527 325.965H354.891V330.613H344.988V331.707H355.359V333.641H342.547V328.836H352.43V327.84H342.527V325.965ZM342.684 316.375H354.832V318.367H345.164V320.027H354.969V321.98H342.684V316.375ZM362.84 317.273C363.634 317.273 364.354 317.482 364.998 317.898C365.649 318.315 366.18 318.914 366.59 319.695C367.007 320.477 367.273 321.395 367.391 322.449H370.477V316.023H372.938V333.836H370.477V324.441H367.42C367.335 325.561 367.088 326.538 366.678 327.371C366.268 328.204 365.73 328.842 365.066 329.285C364.409 329.728 363.667 329.949 362.84 329.949C361.941 329.949 361.141 329.692 360.438 329.178C359.741 328.657 359.197 327.918 358.807 326.961C358.416 325.997 358.224 324.878 358.23 323.602C358.224 322.332 358.416 321.219 358.807 320.262C359.197 319.305 359.741 318.569 360.438 318.055C361.141 317.534 361.941 317.273 362.84 317.273ZM360.613 323.602C360.613 324.467 360.704 325.21 360.887 325.828C361.069 326.44 361.329 326.906 361.668 327.225C362.007 327.537 362.397 327.69 362.84 327.684C363.289 327.69 363.68 327.537 364.012 327.225C364.35 326.906 364.611 326.44 364.793 325.828C364.975 325.21 365.066 324.467 365.066 323.602C365.066 322.736 364.975 321.997 364.793 321.385C364.611 320.773 364.35 320.311 364.012 319.998C363.68 319.679 363.289 319.52 362.84 319.52C362.397 319.52 362.007 319.679 361.668 319.998C361.329 320.311 361.069 320.776 360.887 321.395C360.704 322.007 360.613 322.742 360.613 323.602ZM396.102 331.727H379.832V329.695H386.688V326.414H381.551V317.156H384.051V319.91H391.805V317.156H394.285V326.414H389.168V329.695H396.102V331.727ZM391.805 324.422V321.902H384.051V324.422H391.805ZM148.172 353.816H151.492V351.043H153.973V363.973H151.492V359.617H148.172V361.121H139.734V352.469H148.172V353.816ZM142.137 362.742H144.656V366.492H154.344V368.484H142.137V362.742ZM145.73 359.188V354.441H142.215V359.188H145.73ZM151.492 357.645V355.828H148.172V357.645H151.492ZM162.996 355.047C163.003 356.193 163.162 357.286 163.475 358.328C163.787 359.37 164.266 360.294 164.91 361.102C165.561 361.902 166.362 362.508 167.312 362.918L165.789 364.91C164.826 364.441 164.005 363.787 163.328 362.947C162.658 362.101 162.13 361.111 161.746 359.979C161.349 361.189 160.802 362.247 160.105 363.152C159.409 364.051 158.569 364.741 157.586 365.223L156.023 363.191C157 362.749 157.82 362.104 158.484 361.258C159.155 360.411 159.653 359.454 159.979 358.387C160.304 357.312 160.47 356.199 160.477 355.047V352.391H162.996V355.047ZM165.32 356.609H168.816V351.023H171.277V368.836H168.816V358.621H165.32V356.609ZM194.441 366.824H178.172V364.734H185.008V361.531H179.52V359.578H181.902V354.5H179.441V352.508H193.074V354.5H190.574V359.578H192.996V361.531H187.488V364.734H194.441V366.824ZM188.113 359.578V354.5H184.402V359.578H188.113ZM209.949 361.805H204.832V364.812H211.727V366.805H195.457V364.812H202.312V361.805H197.371V352.254H209.812V354.246H199.91V356.023H209.402V357.977H199.91V359.832H209.949V361.805ZM229.148 355.027H226.844V356.648H229.148V358.68H226.844V360.809H224.344V351.023H226.844V353.016H229.148V355.027ZM212.508 358.836C213.471 358.53 214.272 358.09 214.91 357.518C215.548 356.938 216.02 356.281 216.326 355.545C216.639 354.803 216.798 354.018 216.805 353.191V351.824H219.305V353.172C219.298 353.927 219.445 354.653 219.744 355.35C220.044 356.04 220.499 356.658 221.111 357.205C221.723 357.752 222.482 358.172 223.387 358.465L222.059 360.398C221.141 360.086 220.35 359.637 219.686 359.051C219.028 358.458 218.501 357.758 218.104 356.951C217.706 357.863 217.15 358.65 216.434 359.314C215.724 359.972 214.865 360.477 213.855 360.828L212.508 358.836ZM215.164 361.57H217.664V363.152H224.344V361.57H226.844V368.602H215.164V361.57ZM224.344 366.609V365.066H217.664V366.609H224.344ZM242.645 362.098C243.94 362.098 245.063 362.231 246.014 362.498C246.964 362.758 247.697 363.143 248.211 363.65C248.725 364.152 248.986 364.754 248.992 365.457C248.986 366.147 248.725 366.743 248.211 367.244C247.697 367.752 246.961 368.136 246.004 368.396C245.053 368.663 243.934 368.797 242.645 368.797C241.362 368.797 240.242 368.663 239.285 368.396C238.335 368.136 237.602 367.752 237.088 367.244C236.574 366.743 236.316 366.147 236.316 365.457C236.316 364.754 236.574 364.152 237.088 363.65C237.602 363.143 238.335 362.758 239.285 362.498C240.242 362.231 241.362 362.098 242.645 362.098ZM234.676 358.953H240.73V355.848H243.191V358.953H250.809V360.965H234.676V358.953ZM236.492 351.824H248.895V353.27V353.787C248.895 354.568 248.862 355.291 248.797 355.955C248.732 356.619 248.595 357.312 248.387 358.035L245.945 357.801C246.128 357.072 246.248 356.408 246.307 355.809C246.365 355.203 246.401 354.526 246.414 353.777H236.492V351.824ZM238.797 365.457C238.79 365.932 239.119 366.294 239.783 366.541C240.454 366.782 241.408 366.902 242.645 366.902C243.882 366.902 244.835 366.782 245.506 366.541C246.176 366.294 246.512 365.932 246.512 365.457C246.512 364.969 246.18 364.598 245.516 364.344C244.858 364.083 243.924 363.953 242.713 363.953C241.45 363.953 240.48 364.08 239.803 364.334C239.126 364.588 238.79 364.962 238.797 365.457ZM268.172 363.23H261.219V368.797H258.758V363.23H251.902V361.277H268.172V363.23ZM253.816 351.707H256.277V353.758H263.738V351.707H266.238V359.559H253.816V351.707ZM263.738 357.566V355.711H256.277V357.566H263.738ZM283.309 355.301H285.711V357.371H283.309V361.434H280.809V351.023H283.309V355.301ZM269.207 352.586H273.25V350.906H275.73V352.586H279.754V354.539H269.207V352.586ZM270.066 358.191C270.066 357.566 270.252 357.016 270.623 356.541C270.994 356.066 271.512 355.698 272.176 355.438C272.846 355.177 273.615 355.047 274.48 355.047C275.333 355.047 276.092 355.177 276.756 355.438C277.42 355.698 277.934 356.066 278.299 356.541C278.67 357.016 278.855 357.566 278.855 358.191C278.855 358.816 278.67 359.367 278.299 359.842C277.934 360.317 277.42 360.685 276.756 360.945C276.092 361.206 275.333 361.336 274.48 361.336C273.615 361.336 272.846 361.206 272.176 360.945C271.512 360.685 270.994 360.317 270.623 359.842C270.252 359.367 270.066 358.816 270.066 358.191ZM271.668 362.117H274.148V363.465H280.809V362.117H283.309V368.602H271.668V362.117ZM272.508 358.191C272.501 358.615 272.674 358.94 273.025 359.168C273.383 359.396 273.868 359.513 274.48 359.52C275.092 359.513 275.581 359.396 275.945 359.168C276.31 358.94 276.492 358.615 276.492 358.191C276.492 357.781 276.307 357.459 275.936 357.225C275.571 356.984 275.086 356.87 274.48 356.883C273.882 356.87 273.4 356.984 273.035 357.225C272.677 357.459 272.501 357.781 272.508 358.191ZM280.809 366.648V365.379H274.148V366.648H280.809ZM293.406 355.047C293.4 356.16 293.566 357.234 293.904 358.27C294.243 359.305 294.751 360.226 295.428 361.033C296.105 361.84 296.928 362.449 297.898 362.859L296.434 364.852C295.444 364.402 294.591 363.758 293.875 362.918C293.165 362.078 292.602 361.092 292.186 359.959C291.775 361.196 291.199 362.273 290.457 363.191C289.715 364.103 288.816 364.799 287.762 365.281L286.258 363.211C287.26 362.788 288.107 362.16 288.797 361.326C289.493 360.486 290.014 359.526 290.359 358.445C290.704 357.358 290.88 356.225 290.887 355.047V352.391H293.406V355.047ZM298.855 351.023H301.375V368.836H298.855V351.023ZM317.801 357.625H320.418V359.656H317.801V368.836H315.301V351.023H317.801V357.625ZM304.48 352.664H312.82V354.676H306.961V362.469C308.315 362.456 309.546 362.407 310.652 362.322C311.766 362.238 312.892 362.098 314.031 361.902L314.305 363.992C313.081 364.201 311.87 364.34 310.672 364.412C309.48 364.484 308.09 364.52 306.502 364.52H305.984H304.48V352.664Z" fill="#626262"/>
<path d="M187.81 52.8101H270.19C282.67 52.8101 292.78 62.9201 292.78 75.4001V154.6C292.78 167.08 282.67 177.19 270.19 177.19H187.81C175.33 177.19 165.22 167.08 165.22 154.6V75.4001C165.22 62.9201 175.33 52.8101 187.81 52.8101Z" fill="#001E36"/>
<path d="M193.93 140.02V85.3299C193.93 84.9699 194.08 84.7599 194.47 84.7599C195.37 84.7599 196.21 84.7599 197.44 84.6999C198.73 84.6399 200.05 84.6399 201.49 84.5799C202.93 84.5199 204.46 84.5199 206.11 84.4599C207.76 84.3999 209.35 84.3999 210.94 84.3999C215.29 84.3999 218.92 84.9399 221.89 86.0499C224.56 86.9499 226.99 88.4499 229 90.3999C230.71 92.1099 232.03 94.1799 232.87 96.4599C233.68 98.6799 234.1 100.99 234.1 103.36C234.1 107.92 233.05 111.7 230.92 114.67C228.79 117.64 225.82 119.89 222.37 121.15C218.77 122.47 214.78 122.95 210.4 122.95C209.11 122.95 208.27 122.95 207.73 122.89C207.19 122.83 206.44 122.83 205.45 122.83V139.9C205.51 140.26 205.24 140.59 204.88 140.65C204.82 140.65 204.76 140.65 204.67 140.65H194.56C194.14 140.71 193.93 140.5 193.93 140.02ZM205.51 95.0199V112.87C206.26 112.93 206.95 112.99 207.58 112.99H210.4C212.47 112.99 214.54 112.66 216.52 112.03C218.23 111.55 219.7 110.53 220.87 109.21C221.98 107.89 222.52 106.06 222.52 103.75C222.58 102.1 222.16 100.45 221.29 99.0099C220.39 97.6299 219.1 96.5799 217.57 95.9799C215.59 95.1699 213.49 94.8699 211.3 94.9299C209.92 94.9299 208.69 94.9299 207.7 94.9899C206.62 94.8999 205.87 94.9599 205.51 95.0199Z" fill="#31A8FF"/>
<path d="M267.28 109.63C265.69 108.79 263.98 108.19 262.18 107.83C260.2 107.41 258.25 107.14 256.24 107.14C255.19 107.08 254.05 107.26 253.06 107.5C252.37 107.65 251.77 108.04 251.41 108.55C251.14 108.97 250.99 109.51 250.99 109.99C250.99 110.47 251.2 110.95 251.53 111.37C252.01 111.94 252.64 112.42 253.33 112.81C254.56 113.44 255.82 114.04 257.11 114.55C259.99 115.51 262.75 116.83 265.3 118.42C267.04 119.53 268.48 121.03 269.5 122.83C270.34 124.54 270.79 126.4 270.73 128.29C270.79 130.78 270.04 133.3 268.66 135.37C267.16 137.5 265.09 139.15 262.72 140.11C260.11 141.22 256.93 141.82 253.09 141.82C250.66 141.82 248.26 141.61 245.86 141.13C244 140.8 242.14 140.23 240.43 139.42C240.07 139.21 239.8 138.85 239.86 138.4V129.16C239.86 129.01 239.92 128.8 240.07 128.68C240.22 128.56 240.4 128.62 240.55 128.74C242.62 129.97 244.81 130.81 247.15 131.35C249.16 131.89 251.29 132.16 253.42 132.16C255.43 132.16 256.87 131.89 257.83 131.41C258.67 131.05 259.27 130.12 259.27 129.19C259.27 128.44 258.85 127.75 257.98 127.06C257.14 126.37 255.37 125.56 252.76 124.57C250.06 123.61 247.54 122.35 245.2 120.73C243.55 119.56 242.17 118.03 241.15 116.2C240.31 114.49 239.86 112.63 239.92 110.77C239.92 108.49 240.55 106.3 241.72 104.35C243.04 102.22 245.02 100.51 247.3 99.4601C249.79 98.1701 252.94 97.6001 256.72 97.6001C258.91 97.6001 261.13 97.7501 263.32 98.0801C264.91 98.2901 266.47 98.7101 267.88 99.3101C268.09 99.3701 268.3 99.5801 268.42 99.7901C268.48 100 268.54 100.21 268.54 100.42V109.09C268.54 109.3 268.42 109.51 268.27 109.63C267.76 109.75 267.49 109.75 267.28 109.63Z" fill="#31A8FF"/>
</g>
<defs>
<filter id="filter0_d_1_6702" x="0" y="0" width="458" height="418" filterUnits="userSpaceOnUse" color-interpolation-filters="sRGB">
<feFlood flood-opacity="0" result="BackgroundImageFix"/>
<feColorMatrix in="SourceAlpha" type="matrix" values="0 0 0 0 0 0 0 0 0 0 0 0 0 0 0 0 0 0 127 0" result="hardAlpha"/>
<feOffset dy="4"/>
<feGaussianBlur stdDeviation="2"/>
<feComposite in2="hardAlpha" operator="out"/>
<feColorMatrix type="matrix" values="0 0 0 0 0 0 0 0 0 0 0 0 0 0 0 0 0 0 0.25 0"/>
<feBlend mode="normal" in2="BackgroundImageFix" result="effect1_dropShadow_1_6702"/>
<feBlend mode="normal" in="SourceGraphic" in2="effect1_dropShadow_1_6702" result="shape"/>
</filter>
</defs>
</svg>
