<svg width="450" height="230" viewBox="0 0 450 230" fill="none" xmlns="http://www.w3.org/2000/svg">
<path d="M0 0H450V230H0V0Z" fill="#001E36"/>
<path d="M183.81 52.8101H266.19C278.67 52.8101 288.78 62.9201 288.78 75.4001V154.6C288.78 167.08 278.67 177.19 266.19 177.19H183.81C171.33 177.19 161.22 167.08 161.22 154.6V75.4001C161.22 62.9201 171.33 52.8101 183.81 52.8101Z" fill="#001E36"/>
<path d="M189.93 140.02V85.3301C189.93 84.9701 190.08 84.7601 190.47 84.7601C191.37 84.7601 192.21 84.7601 193.44 84.7001C194.73 84.6401 196.05 84.6401 197.49 84.5801C198.93 84.5201 200.46 84.5201 202.11 84.4601C203.76 84.4001 205.35 84.4001 206.94 84.4001C211.29 84.4001 214.92 84.9401 217.89 86.0501C220.56 86.9501 222.99 88.4501 225 90.4001C226.71 92.1101 228.03 94.1801 228.87 96.4601C229.68 98.6801 230.1 100.99 230.1 103.36C230.1 107.92 229.05 111.7 226.92 114.67C224.79 117.64 221.82 119.89 218.37 121.15C214.77 122.47 210.78 122.95 206.4 122.95C205.11 122.95 204.27 122.95 203.73 122.89C203.19 122.83 202.44 122.83 201.45 122.83V139.9C201.51 140.26 201.24 140.59 200.88 140.65C200.82 140.65 200.76 140.65 200.67 140.65H190.56C190.14 140.71 189.93 140.5 189.93 140.02ZM201.51 95.0201V112.87C202.26 112.93 202.95 112.99 203.58 112.99H206.4C208.47 112.99 210.54 112.66 212.52 112.03C214.23 111.55 215.7 110.53 216.87 109.21C217.98 107.89 218.52 106.06 218.52 103.75C218.58 102.1 218.16 100.45 217.29 99.0101C216.39 97.6301 215.1 96.5801 213.57 95.9801C211.59 95.1701 209.49 94.8701 207.3 94.9301C205.92 94.9301 204.69 94.9301 203.7 94.9901C202.62 94.9001 201.87 94.9601 201.51 95.0201Z" fill="#31A8FF"/>
<path d="M263.28 109.63C261.69 108.79 259.98 108.19 258.18 107.83C256.2 107.41 254.25 107.14 252.24 107.14C251.19 107.08 250.05 107.26 249.06 107.5C248.37 107.65 247.77 108.04 247.41 108.55C247.14 108.97 246.99 109.51 246.99 109.99C246.99 110.47 247.2 110.95 247.53 111.37C248.01 111.94 248.64 112.42 249.33 112.81C250.56 113.44 251.82 114.04 253.11 114.55C255.99 115.51 258.75 116.83 261.3 118.42C263.04 119.53 264.48 121.03 265.5 122.83C266.34 124.54 266.79 126.4 266.73 128.29C266.79 130.78 266.04 133.3 264.66 135.37C263.16 137.5 261.09 139.15 258.72 140.11C256.11 141.22 252.93 141.82 249.09 141.82C246.66 141.82 244.26 141.61 241.86 141.13C240 140.8 238.14 140.23 236.43 139.42C236.07 139.21 235.8 138.85 235.86 138.4V129.16C235.86 129.01 235.92 128.8 236.07 128.68C236.22 128.56 236.4 128.62 236.55 128.74C238.62 129.97 240.81 130.81 243.15 131.35C245.16 131.89 247.29 132.16 249.42 132.16C251.43 132.16 252.87 131.89 253.83 131.41C254.67 131.05 255.27 130.12 255.27 129.19C255.27 128.44 254.85 127.75 253.98 127.06C253.14 126.37 251.37 125.56 248.76 124.57C246.06 123.61 243.54 122.35 241.2 120.73C239.55 119.56 238.17 118.03 237.15 116.2C236.31 114.49 235.86 112.63 235.92 110.77C235.92 108.49 236.55 106.3 237.72 104.35C239.04 102.22 241.02 100.51 243.3 99.4601C245.79 98.1701 248.94 97.6001 252.72 97.6001C254.91 97.6001 257.13 97.7501 259.32 98.0801C260.91 98.2901 262.47 98.7101 263.88 99.3101C264.09 99.3701 264.3 99.5801 264.42 99.7901C264.48 100 264.54 100.21 264.54 100.42V109.09C264.54 109.3 264.42 109.51 264.27 109.63C263.76 109.75 263.49 109.75 263.28 109.63Z" fill="#31A8FF"/>
</svg>
