<svg width="32" height="32" viewBox="0 0 32 32" fill="none" xmlns="http://www.w3.org/2000/svg">
<path d="M0 25.3606C0 19.2627 0 13.2217 0 7.09529C1.41007 6.4399 2.82014 5.78451 4.31655 5.10063C8 6.78184 11.7122 8.49155 15.482 10.2013C16.2302 9.83081 16.9784 9.46037 18.0144 8.97596C14.2734 7.29475 10.8201 5.72752 7.19424 4.1033C10.1583 2.67855 12.9209 1.33927 15.741 0C21.1511 2.3366 26.5612 4.6732 32 7.0098C32 8.86198 32 10.6287 32 12.5378C28.2878 14.2191 24.5468 15.9288 20.7482 17.6385C20.7482 20.545 20.7482 23.3945 20.7482 26.472C24.5468 25.1327 28.1439 23.48 31.9712 22.0552C31.9712 23.2235 31.9712 24.2778 31.9712 25.5031C27.2806 27.6118 22.4748 29.7774 17.554 32C17.4676 26.301 17.3525 20.7729 17.2662 15.1309C21.1223 13.4212 24.9784 11.7115 28.8633 10.0018C28.8633 9.46037 28.8633 9.00445 28.8633 8.46305C24.5755 6.61087 20.3165 4.73019 16.0288 2.87801C15.3669 3.16296 14.7338 3.44791 13.7842 3.87534C17.6403 5.61354 21.2374 7.23776 25.0647 8.97596C22.0144 10.4007 19.1655 11.74 16.259 13.0793C12.3165 11.4835 8.40288 9.8878 4.43166 8.26358C4.08634 8.37756 3.68346 8.52003 3.22302 8.69101C3.22302 9.17542 3.22302 9.60285 3.22302 10.1158C6.90648 11.8255 10.6187 13.5637 14.3597 15.3019C14.3597 16.3847 14.3597 17.439 14.3597 18.6358C10.5899 17.0971 6.96403 15.6153 3.19425 14.0766C3.19425 14.8744 3.19425 15.5013 3.19425 16.2992C6.8777 17.8949 10.5899 19.5476 14.3597 21.2004C14.3597 22.4257 14.3597 23.5939 14.3597 24.9617C10.5324 23.6224 6.99281 21.8557 3.16547 20.431C3.16547 21.3998 3.16547 22.2547 3.16547 23.2235C6.93525 24.9047 10.7338 26.6144 14.5612 28.3526C14.5612 29.5209 14.5612 30.6322 14.5612 31.9715C9.64029 29.7204 4.83453 27.5548 0 25.3606Z" fill="black"/>
</svg>
