<svg width="121" height="30" viewBox="0 0 121 30" fill="none" xmlns="http://www.w3.org/2000/svg">
<g clip-path="url(#clip0_176_95)">
<path d="M0 23.7756C0 18.0587 0 12.3954 0 6.65182C1.32194 6.03742 2.64388 5.42298 4.04676 4.78184C7.5 6.35798 10.9802 7.9608 14.5144 9.56367C15.2158 9.21638 15.9172 8.86909 16.8885 8.41495C13.3813 6.8388 10.1439 5.36955 6.74459 3.84685C9.52339 2.51114 12.1133 1.25557 14.7572 0C19.8291 2.19056 24.9011 4.38112 30 6.57169C30 8.30809 30 9.96436 30 11.7542C26.5198 13.3304 23.0126 14.9332 19.4515 16.5361C19.4515 19.2609 19.4515 21.9323 19.4515 24.8175C23.0126 23.5619 26.3849 22.0125 29.973 20.6768C29.973 21.772 29.973 22.7605 29.973 23.9092C25.5755 25.886 21.0701 27.9163 16.4568 30C16.3759 24.6572 16.268 19.4746 16.187 14.1852C19.8021 12.5824 23.4172 10.9795 27.0594 9.37669C27.0594 8.86909 27.0594 8.44167 27.0594 7.93413C23.0396 6.19767 19.0468 4.43455 15.027 2.69813C14.4065 2.96527 13.813 3.23241 12.9227 3.63313C16.5378 5.26269 19.9101 6.7854 23.4982 8.41495C20.6385 9.75065 17.9676 11.0062 15.2428 12.2618C11.5468 10.7658 7.87768 9.26984 4.15468 7.74709C3.83094 7.85395 3.45324 7.98753 3.02158 8.14784C3.02158 8.60198 3.02158 9.00267 3.02158 9.48355C6.4748 11.0864 9.95502 12.716 13.4622 14.3455C13.4622 15.3607 13.4622 16.3491 13.4622 17.4711C9.92807 16.0285 6.5288 14.6393 2.99461 13.1968C2.99461 13.9448 2.99461 14.5325 2.99461 15.2805C6.44786 16.7765 9.92807 18.3259 13.4622 19.8753C13.4622 21.0241 13.4622 22.1193 13.4622 23.4016C9.87412 22.1461 6.55575 20.4898 2.96763 19.1541C2.96763 20.0623 2.96763 20.8637 2.96763 21.772C6.5018 23.3482 10.063 24.951 13.6511 26.5806C13.6511 27.6759 13.6511 28.7177 13.6511 29.9733C9.03777 27.8629 4.53237 25.8326 0 23.7756Z" fill="white"/>
<path d="M45.0945 13.4817H42.6781C42.6339 13.1634 42.5438 12.8807 42.4077 12.6335C42.2716 12.3826 42.0969 12.1691 41.8836 11.9932C41.6703 11.8171 41.4238 11.6823 41.1443 11.5887C40.8685 11.4951 40.5687 11.4483 40.2451 11.4483C39.6603 11.4483 39.1509 11.5962 38.7169 11.892C38.2829 12.1841 37.9464 12.6111 37.7073 13.1728C37.4682 13.7308 37.3487 14.4085 37.3487 15.2062C37.3487 16.0263 37.4682 16.7154 37.7073 17.2734C37.95 17.8313 38.2884 18.2526 38.7224 18.5373C39.1564 18.8219 39.6585 18.9641 40.2285 18.9641C40.5485 18.9641 40.8446 18.9211 41.1167 18.835C41.3926 18.7488 41.6372 18.6234 41.8505 18.4586C42.0638 18.2901 42.2404 18.086 42.3801 17.8463C42.5236 17.6067 42.6229 17.3333 42.6781 17.0262L45.0945 17.0374C45.0319 17.5655 44.8756 18.0748 44.6255 18.5653C44.3791 19.0522 44.0462 19.4884 43.627 19.8742C43.2114 20.2561 42.7148 20.5595 42.1374 20.7841C41.5636 21.0051 40.9144 21.1156 40.1899 21.1156C39.1822 21.1156 38.281 20.8834 37.4866 20.419C36.6958 19.9547 36.0706 19.2825 35.6108 18.4024C35.1548 17.5224 34.9268 16.457 34.9268 15.2062C34.9268 13.9517 35.1585 12.8844 35.6218 12.0044C36.0853 11.1244 36.7142 10.454 37.5087 9.99342C38.3031 9.52902 39.1968 9.29688 40.1899 9.29688C40.8446 9.29688 41.4514 9.39048 42.0105 9.57773C42.5732 9.76498 43.0716 10.0384 43.5056 10.3978C43.9396 10.7536 44.2927 11.1899 44.5648 11.7066C44.8407 12.2235 45.0172 12.8151 45.0945 13.4817ZM46.8075 20.9583V9.45413H49.1963V18.9529H54.0402V20.9583H46.8075ZM57.8578 20.9583H55.298L59.1987 9.45413H62.2769L66.1721 20.9583H63.6119L60.7817 12.083H60.6939L57.8578 20.9583ZM57.6982 16.4364H63.7448V18.335H57.6982V16.4364ZM73.4032 12.7627C73.3592 12.3096 73.1696 11.9575 72.8353 11.7066C72.5005 11.4558 72.0462 11.3303 71.4724 11.3303C71.0824 11.3303 70.7535 11.3865 70.4846 11.4988C70.2162 11.6074 70.0105 11.7591 69.8669 11.9538C69.7271 12.1486 69.6574 12.3695 69.6574 12.6167C69.6499 12.8226 69.6923 13.0024 69.7844 13.1559C69.8798 13.3095 70.0105 13.4424 70.176 13.5547C70.3415 13.6633 70.5328 13.7589 70.7498 13.8412C70.9667 13.9199 71.1981 13.9873 71.4446 14.0434L72.4598 14.2906C72.9526 14.4029 73.4053 14.5527 73.8173 14.74C74.2292 14.9272 74.586 15.1575 74.8871 15.4309C75.1887 15.7043 75.4223 16.0263 75.5878 16.3971C75.7571 16.7678 75.8439 17.1928 75.8471 17.6722C75.8439 18.3762 75.6671 18.9866 75.3178 19.5034C74.9717 20.0165 74.4719 20.4153 73.8173 20.6999C73.1658 20.9807 72.381 21.1212 71.4612 21.1212C70.5494 21.1212 69.7549 20.9789 69.0778 20.6943C68.4049 20.4096 67.8789 19.9884 67.5001 19.4304C67.1251 18.8687 66.928 18.174 66.9098 17.3464H69.2214C69.2471 17.7321 69.3558 18.0541 69.5471 18.3125C69.7421 18.5672 70.0014 18.7601 70.3249 18.8911C70.6523 19.0185 71.0219 19.0821 71.4339 19.0821C71.8383 19.0821 72.1898 19.0222 72.4876 18.9024C72.7892 18.7825 73.0228 18.6159 73.1883 18.4024C73.3539 18.189 73.4364 17.9437 73.4364 17.6665C73.4364 17.4082 73.3608 17.191 73.2103 17.0149C73.063 16.839 72.846 16.6891 72.5594 16.5656C72.276 16.442 71.9283 16.3296 71.5164 16.2286L70.2864 15.914C69.3339 15.678 68.5817 15.3092 68.0299 14.8074C67.4782 14.3056 67.2039 13.6296 67.2076 12.7795C67.2039 12.083 67.386 11.4745 67.754 10.954C68.1253 10.4334 68.6348 10.0271 69.2819 9.73498C69.9296 9.44289 70.6651 9.29688 71.489 9.29688C72.3274 9.29688 73.0592 9.44289 73.6844 9.73498C74.3133 10.0271 74.803 10.4334 75.1523 10.954C75.5015 11.4745 75.6815 12.0774 75.6928 12.7627H73.4032ZM83.5833 12.7627C83.5394 12.3096 83.3498 11.9575 83.0149 11.7066C82.6807 11.4558 82.2264 11.3303 81.6526 11.3303C81.2626 11.3303 80.9337 11.3865 80.6648 11.4988C80.3964 11.6074 80.1906 11.7591 80.0471 11.9538C79.9073 12.1486 79.8376 12.3695 79.8376 12.6167C79.8301 12.8226 79.8724 13.0024 79.964 13.1559C80.0599 13.3095 80.1907 13.4424 80.3562 13.5547C80.5217 13.6633 80.713 13.7589 80.9299 13.8412C81.1469 13.9199 81.3783 13.9873 81.6248 14.0434L82.6399 14.2906C83.1328 14.4029 83.5855 14.5527 83.9974 14.74C84.4089 14.9272 84.7657 15.1575 85.0673 15.4309C85.3689 15.7043 85.6024 16.0263 85.768 16.3971C85.9373 16.7678 86.0235 17.1928 86.0273 17.6722C86.0235 18.3762 85.8473 18.9866 85.498 19.5034C85.1519 20.0165 84.6521 20.4153 83.9974 20.6999C83.346 20.9807 82.5612 21.1212 81.6414 21.1212C80.7296 21.1212 79.9351 20.9789 79.258 20.6943C78.5851 20.4096 78.059 19.9884 77.6803 19.4304C77.3053 18.8687 77.1082 18.174 77.0899 17.3464H79.4015C79.4273 17.7321 79.536 18.0541 79.7273 18.3125C79.9223 18.5672 80.1815 18.7601 80.5051 18.8911C80.8324 19.0185 81.2021 19.0821 81.614 19.0821C82.0185 19.0821 82.3699 19.0222 82.6678 18.9024C82.9694 18.7825 83.203 18.6159 83.3685 18.4024C83.5335 18.189 83.6165 17.9437 83.6165 17.6665C83.6165 17.4082 83.541 17.191 83.3905 17.0149C83.2431 16.839 83.0262 16.6891 82.7396 16.5656C82.4562 16.442 82.1085 16.3296 81.6965 16.2286L80.4665 15.914C79.5135 15.678 78.7614 15.3092 78.2101 14.8074C77.6583 14.3056 77.384 13.6296 77.3878 12.7795C77.384 12.083 77.5662 11.4745 77.9342 10.954C78.3055 10.4334 78.8149 10.0271 79.4621 9.73498C80.1098 9.44289 80.8453 9.29688 81.6692 9.29688C82.5076 9.29688 83.2394 9.44289 83.8646 9.73498C84.4935 10.0271 84.9831 10.4334 85.3324 10.954C85.6817 11.4745 85.8617 12.0774 85.873 12.7627H83.5833ZM91.2301 20.9583V9.45413H98.8431V11.4595H93.6189V14.2007H98.4515V16.2061H93.6189V18.9529H98.8651V20.9583H91.2301ZM106.872 12.7627C106.827 12.3096 106.638 11.9575 106.304 11.7066C105.969 11.4558 105.514 11.3303 104.941 11.3303C104.551 11.3303 104.222 11.3865 103.953 11.4988C103.685 11.6074 103.479 11.7591 103.336 11.9538C103.196 12.1486 103.126 12.3695 103.126 12.6167C103.119 12.8226 103.161 13.0024 103.253 13.1559C103.349 13.3095 103.479 13.4424 103.644 13.5547C103.81 13.6633 104.001 13.7589 104.218 13.8412C104.435 13.9199 104.667 13.9873 104.913 14.0434L105.929 14.2906C106.421 14.4029 106.874 14.5527 107.285 14.74C107.697 14.9272 108.054 15.1575 108.356 15.4309C108.657 15.7043 108.891 16.0263 109.057 16.3971C109.226 16.7678 109.312 17.1928 109.316 17.6722C109.312 18.3762 109.136 18.9866 108.786 19.5034C108.44 20.0165 107.94 20.4153 107.285 20.6999C106.635 20.9807 105.849 21.1212 104.93 21.1212C104.018 21.1212 103.223 20.9789 102.547 20.6943C101.874 20.4096 101.348 19.9884 100.969 19.4304C100.593 18.8687 100.397 18.174 100.379 17.3464H102.69C102.716 17.7321 102.824 18.0541 103.015 18.3125C103.21 18.5672 103.47 18.7601 103.793 18.8911C104.12 19.0185 104.49 19.0821 104.902 19.0821C105.307 19.0821 105.658 19.0222 105.956 18.9024C106.257 18.7825 106.491 18.6159 106.657 18.4024C106.822 18.189 106.905 17.9437 106.905 17.6665C106.905 17.4082 106.83 17.191 106.679 17.0149C106.532 16.839 106.315 16.6891 106.028 16.5656C105.745 16.442 105.397 16.3296 104.985 16.2286L103.755 15.914C102.802 15.678 102.05 15.3092 101.498 14.8074C100.946 14.3056 100.673 13.6296 100.676 12.7795C100.673 12.083 100.855 11.4745 101.222 10.954C101.594 10.4334 102.104 10.0271 102.751 9.73498C103.398 9.44289 104.133 9.29688 104.957 9.29688C105.796 9.29688 106.528 9.44289 107.153 9.73498C107.782 10.0271 108.271 10.4334 108.62 10.954C108.97 11.4745 109.15 12.0774 109.162 12.7627H106.872ZM120.892 13.4817H118.475C118.431 13.1634 118.341 12.8807 118.205 12.6335C118.069 12.3826 117.894 12.1691 117.681 11.9932C117.468 11.8171 117.221 11.6823 116.942 11.5887C116.666 11.4951 116.366 11.4483 116.042 11.4483C115.458 11.4483 114.948 11.5962 114.514 11.892C114.08 12.1841 113.744 12.6111 113.505 13.1728C113.266 13.7308 113.146 14.4085 113.146 15.2062C113.146 16.0263 113.266 16.7154 113.505 17.2734C113.747 17.8313 114.086 18.2526 114.52 18.5373C114.954 18.8219 115.456 18.9641 116.026 18.9641C116.346 18.9641 116.642 18.9211 116.914 18.835C117.19 18.7488 117.435 18.6234 117.648 18.4586C117.861 18.2901 118.038 18.086 118.178 17.8463C118.321 17.6067 118.42 17.3333 118.475 17.0262L120.892 17.0374C120.829 17.5655 120.673 18.0748 120.423 18.5653C120.176 19.0522 119.844 19.4884 119.424 19.8742C119.009 20.2561 118.512 20.5595 117.935 20.7841C117.361 21.0051 116.712 21.1156 115.987 21.1156C114.979 21.1156 114.078 20.8834 113.284 20.419C112.493 19.9547 111.868 19.2825 111.408 18.4024C110.952 17.5224 110.724 16.457 110.724 15.2062C110.724 13.9517 110.956 12.8844 111.419 12.0044C111.882 11.1244 112.511 10.454 113.306 9.99342C114.1 9.52902 114.994 9.29688 115.987 9.29688C116.642 9.29688 117.249 9.39048 117.808 9.57773C118.37 9.76498 118.869 10.0384 119.303 10.3978C119.737 10.7536 120.09 11.1899 120.362 11.7066C120.638 12.2235 120.814 12.8151 120.892 13.4817Z" fill="white"/>
</g>
<defs>
<clipPath id="clip0_176_95">
<rect width="121" height="30" fill="white"/>
</clipPath>
</defs>
</svg>
