<svg width="164" height="157" viewBox="0 0 164 157" fill="none" xmlns="http://www.w3.org/2000/svg">
<path d="M20.4421 142.424H15.9315C15.8491 141.84 15.6809 141.322 15.4268 140.869C15.1728 140.409 14.8467 140.017 14.4485 139.695C14.0503 139.372 13.5903 139.125 13.0685 138.953C12.5536 138.782 11.9941 138.696 11.3899 138.696C10.2983 138.696 9.34742 138.967 8.53729 139.509C7.72715 140.045 7.09896 140.828 6.6527 141.857C6.20644 142.88 5.98331 144.123 5.98331 145.585C5.98331 147.089 6.20644 148.352 6.6527 149.375C7.10582 150.398 7.73745 151.171 8.54759 151.692C9.35772 152.214 10.2949 152.475 11.359 152.475C11.9563 152.475 12.509 152.396 13.017 152.238C13.532 152.08 13.9885 151.85 14.3867 151.548C14.7849 151.239 15.1145 150.865 15.3754 150.426C15.6431 149.986 15.8285 149.485 15.9315 148.922L20.4421 148.943C20.3254 149.911 20.0336 150.844 19.5668 151.744C19.1068 152.636 18.4854 153.436 17.7028 154.143C16.927 154.844 16.0001 155.4 14.9222 155.812C13.8512 156.217 12.6394 156.419 11.2869 156.419C9.40578 156.419 7.72372 155.994 6.24077 155.142C4.76468 154.291 3.59754 153.059 2.73935 151.445C1.88802 149.832 1.46236 147.878 1.46236 145.585C1.46236 143.285 1.89489 141.329 2.75994 139.715C3.625 138.102 4.79901 136.873 6.28196 136.029C7.76492 135.177 9.43324 134.752 11.2869 134.752C12.509 134.752 13.6418 134.923 14.6854 135.267C15.7358 135.61 16.6661 136.111 17.4762 136.77C18.2863 137.422 18.9454 138.222 19.4535 139.17C19.9684 140.117 20.2979 141.202 20.4421 142.424ZM23.6397 156.131V135.04H28.0989V152.454H37.1408V156.131H23.6397ZM44.2672 156.131H39.4888L46.7697 135.04H52.5162L59.7868 156.131H55.0083L49.7253 139.86H49.5605L44.2672 156.131ZM43.9686 147.841H55.2555V151.322H43.9686V147.841ZM73.2852 141.106C73.2029 140.275 72.8493 139.63 72.2245 139.17C71.5998 138.71 70.7519 138.48 69.6808 138.48C68.9531 138.48 68.3386 138.583 67.8374 138.789C67.3363 138.988 66.9518 139.266 66.684 139.623C66.4231 139.98 66.2927 140.385 66.2927 140.838C66.279 141.215 66.3579 141.545 66.5296 141.827C66.7081 142.108 66.9518 142.352 67.2607 142.558C67.5697 142.757 67.9267 142.932 68.3318 143.083C68.7368 143.227 69.1694 143.351 69.6294 143.454L71.5242 143.907C72.4442 144.113 73.2887 144.387 74.0576 144.731C74.8266 145.074 75.4925 145.496 76.0555 145.997C76.6185 146.499 77.0544 147.089 77.3634 147.769C77.6792 148.448 77.8405 149.228 77.8474 150.106C77.8405 151.397 77.511 152.516 76.8588 153.464C76.2134 154.404 75.2797 155.135 74.0576 155.657C72.8424 156.172 71.3766 156.43 69.6602 156.43C67.9576 156.43 66.4746 156.169 65.2114 155.647C63.955 155.125 62.9732 154.353 62.2661 153.33C61.5658 152.3 61.1985 151.026 61.1642 149.509H65.4791C65.5272 150.216 65.7297 150.807 66.0867 151.28C66.4506 151.747 66.9346 152.101 67.5388 152.341C68.1498 152.575 68.8398 152.691 69.6088 152.691C70.364 152.691 71.0196 152.581 71.5757 152.362C72.1387 152.142 72.5747 151.836 72.8836 151.445C73.1926 151.054 73.347 150.604 73.347 150.096C73.347 149.622 73.2063 149.224 72.9248 148.901C72.6502 148.579 72.2451 148.304 71.7096 148.078C71.181 147.851 70.5322 147.645 69.7632 147.46L67.4667 146.883C65.6885 146.45 64.2845 145.774 63.2547 144.854C62.2249 143.934 61.7134 142.695 61.7203 141.137C61.7134 139.86 62.0532 138.744 62.7398 137.79C63.4332 136.835 64.3841 136.09 65.5924 135.555C66.8008 135.019 68.1739 134.752 69.7117 134.752C71.2771 134.752 72.6433 135.019 73.8105 135.555C74.9845 136.09 75.8976 136.835 76.5498 137.79C77.202 138.744 77.5384 139.849 77.559 141.106H73.2852ZM92.2882 141.106C92.2058 140.275 91.8522 139.63 91.2275 139.17C90.6027 138.71 89.7548 138.48 88.6838 138.48C87.956 138.48 87.3416 138.583 86.8404 138.789C86.3392 138.988 85.9547 139.266 85.687 139.623C85.4261 139.98 85.2956 140.385 85.2956 140.838C85.2819 141.215 85.3609 141.545 85.5325 141.827C85.711 142.108 85.9547 142.352 86.2637 142.558C86.5726 142.757 86.9296 142.932 87.3347 143.083C87.7398 143.227 88.1723 143.351 88.6323 143.454L90.5272 143.907C91.4471 144.113 92.2916 144.387 93.0605 144.731C93.8295 145.074 94.4954 145.496 95.0584 145.997C95.6214 146.499 96.0574 147.089 96.3663 147.769C96.6821 148.448 96.8435 149.228 96.8503 150.106C96.8435 151.397 96.5139 152.516 95.8617 153.464C95.2163 154.404 94.2826 155.135 93.0605 155.657C91.8453 156.172 90.3796 156.43 88.6632 156.43C86.9605 156.43 85.4776 156.169 84.2143 155.647C82.9579 155.125 81.9761 154.353 81.269 153.33C80.5687 152.3 80.2014 151.026 80.1671 149.509H84.4821C84.5301 150.216 84.7327 150.807 85.0897 151.28C85.4535 151.747 85.9376 152.101 86.5417 152.341C87.1528 152.575 87.8427 152.691 88.6117 152.691C89.3669 152.691 90.0225 152.581 90.5787 152.362C91.1416 152.142 91.5776 151.836 91.8865 151.445C92.1955 151.054 92.35 150.604 92.35 150.096C92.35 149.622 92.2092 149.224 91.9277 148.901C91.6531 148.579 91.248 148.304 90.7125 148.078C90.1839 147.851 89.5351 147.645 88.7662 147.46L86.4696 146.883C84.6915 146.45 83.2875 145.774 82.2576 144.854C81.2278 143.934 80.7163 142.695 80.7232 141.137C80.7163 139.86 81.0562 138.744 81.7427 137.79C82.4361 136.835 83.387 136.09 84.5953 135.555C85.8037 135.019 87.1768 134.752 88.7147 134.752C90.28 134.752 91.6462 135.019 92.8134 135.555C93.9874 136.09 94.9005 136.835 95.5527 137.79C96.205 138.744 96.5414 139.849 96.562 141.106H92.2882ZM106.562 156.131V135.04H120.773V138.716H111.021V143.742H120.042V147.419H111.021V152.454H120.814V156.131H106.562ZM135.76 141.106C135.677 140.275 135.324 139.63 134.699 139.17C134.074 138.71 133.226 138.48 132.155 138.48C131.428 138.48 130.813 138.583 130.312 138.789C129.811 138.988 129.426 139.266 129.159 139.623C128.898 139.98 128.767 140.385 128.767 140.838C128.754 141.215 128.833 141.545 129.004 141.827C129.183 142.108 129.426 142.352 129.735 142.558C130.044 142.757 130.401 142.932 130.806 143.083C131.211 143.227 131.644 143.351 132.104 143.454L133.999 143.907C134.919 144.113 135.763 144.387 136.532 144.731C137.301 145.074 137.967 145.496 138.53 145.997C139.093 146.499 139.529 147.089 139.838 147.769C140.154 148.448 140.315 149.228 140.322 150.106C140.315 151.397 139.986 152.516 139.333 153.464C138.688 154.404 137.754 155.135 136.532 155.657C135.317 156.172 133.851 156.43 132.135 156.43C130.432 156.43 128.949 156.169 127.686 155.647C126.43 155.125 125.448 154.353 124.741 153.33C124.04 152.3 123.673 151.026 123.639 149.509H127.954C128.002 150.216 128.204 150.807 128.561 151.28C128.925 151.747 129.409 152.101 130.013 152.341C130.624 152.575 131.314 152.691 132.083 152.691C132.839 152.691 133.494 152.581 134.05 152.362C134.613 152.142 135.049 151.836 135.358 151.445C135.667 151.054 135.822 150.604 135.822 150.096C135.822 149.622 135.681 149.224 135.399 148.901C135.125 148.579 134.72 148.304 134.184 148.078C133.656 147.851 133.007 147.645 132.238 147.46L129.941 146.883C128.163 146.45 126.759 145.774 125.729 144.854C124.699 143.934 124.188 142.695 124.195 141.137C124.188 139.86 124.528 138.744 125.214 137.79C125.908 136.835 126.859 136.09 128.067 135.555C129.275 135.019 130.648 134.752 132.186 134.752C133.752 134.752 135.118 135.019 136.285 135.555C137.459 136.09 138.372 136.835 139.024 137.79C139.677 138.744 140.013 139.849 140.034 141.106H135.76ZM161.93 142.424H157.42C157.337 141.84 157.169 141.322 156.915 140.869C156.661 140.409 156.335 140.017 155.937 139.695C155.539 139.372 155.079 139.125 154.557 138.953C154.042 138.782 153.482 138.696 152.878 138.696C151.787 138.696 150.836 138.967 150.026 139.509C149.215 140.045 148.587 140.828 148.141 141.857C147.695 142.88 147.472 144.123 147.472 145.585C147.472 147.089 147.695 148.352 148.141 149.375C148.594 150.398 149.226 151.171 150.036 151.692C150.846 152.214 151.783 152.475 152.847 152.475C153.445 152.475 153.997 152.396 154.505 152.238C155.02 152.08 155.477 151.85 155.875 151.548C156.273 151.239 156.603 150.865 156.864 150.426C157.131 149.986 157.317 149.485 157.42 148.922L161.93 148.943C161.814 149.911 161.522 150.844 161.055 151.744C160.595 152.636 159.974 153.436 159.191 154.143C158.415 154.844 157.488 155.4 156.411 155.812C155.339 156.217 154.128 156.419 152.775 156.419C150.894 156.419 149.212 155.994 147.729 155.142C146.253 154.291 145.086 153.059 144.228 151.445C143.376 149.832 142.951 147.878 142.951 145.585C142.951 143.285 143.383 141.329 144.248 139.715C145.113 138.102 146.287 136.873 147.77 136.029C149.253 135.177 150.922 134.752 152.775 134.752C153.997 134.752 155.13 134.923 156.174 135.267C157.224 135.61 158.154 136.111 158.964 136.77C159.775 137.422 160.434 138.222 160.942 139.17C161.457 140.117 161.786 141.202 161.93 142.424Z" fill="white"/>
<path d="M23 98.1745C23 74.5685 23 51.1831 23 27.4668C28.1996 24.9297 33.3993 22.3926 38.9173 19.7452C52.5 26.2534 66.1889 32.8719 80.0899 39.4904C82.8489 38.0564 85.6079 36.6224 89.4281 34.7471C75.6331 28.239 62.8993 22.172 49.5288 15.8844C60.4586 10.369 70.6457 5.1845 81.045 0C100.995 9.04529 120.944 18.0906 141 27.1359C141 34.3059 141 41.145 141 48.5357C127.311 55.0439 113.516 61.6624 99.509 68.2809C99.509 79.5324 99.509 90.5632 99.509 102.477C113.516 97.292 126.781 90.8942 140.894 85.3787C140.894 89.9014 140.894 93.9828 140.894 98.726C123.597 106.889 105.876 115.272 87.7302 123.876C87.4119 101.815 86.9874 80.4148 86.6691 58.5738C100.888 51.9553 115.108 45.3368 129.433 38.7183C129.433 36.6224 129.433 34.8575 129.433 32.7616C113.622 25.5916 97.9173 18.3112 82.1061 11.1412C79.6655 12.2442 77.331 13.3473 73.8292 15.002C88.0486 21.7308 101.313 28.0183 115.426 34.7471C104.178 40.2626 93.6727 45.4471 82.955 50.6316C68.4173 44.4543 53.9856 38.277 39.3417 31.9894C38.0684 32.4307 36.5827 32.9822 34.8849 33.6441C34.8849 35.5193 34.8849 37.1739 34.8849 39.1595C48.4676 45.778 62.1565 52.5068 75.9515 59.2356C75.9515 63.4273 75.9515 67.5088 75.9515 72.1417C62.0504 66.1851 48.6799 60.449 34.7788 54.4924C34.7788 57.581 34.7788 60.0078 34.7788 63.0964C48.3615 69.2737 62.0504 75.6716 75.9515 82.0695C75.9515 86.8127 75.9515 91.3354 75.9515 96.6302C61.8381 91.4457 48.786 84.6066 34.6727 79.0911C34.6727 82.8416 34.6727 86.1509 34.6727 89.9014C48.5737 96.4095 62.5809 103.028 76.6942 109.757C76.6942 114.28 76.6942 118.582 76.6942 123.766C58.5486 115.052 40.8273 106.668 23 98.1745Z" fill="white"/>
</svg>
