<svg width="224" height="55" viewBox="0 0 224 55" fill="none" xmlns="http://www.w3.org/2000/svg">
<path d="M0 43.5886C0 33.1077 0 22.7249 0 12.195C2.46763 11.0686 4.93525 9.94213 7.55396 8.76671C14 11.6563 20.4964 14.5948 27.0935 17.5334C28.4029 16.8967 29.7122 16.26 31.5252 15.4274C24.9784 12.5378 18.9352 9.84418 12.5899 7.05255C17.777 4.60375 22.6115 2.30187 27.5468 0C37.0144 4.01603 46.482 8.03206 56 12.0481C56 15.2315 56 18.268 56 21.5494C49.5036 24.439 42.9568 27.3776 36.3094 30.3161C36.3094 35.3117 36.3094 40.2093 36.3094 45.4987C42.9568 43.1968 49.2518 40.3562 55.9496 37.9074C55.9496 39.9154 55.9496 41.7275 55.9496 43.8335C47.741 47.4577 39.3309 51.1799 30.7194 55C30.5683 45.2048 30.3669 35.7035 30.2158 26.0062C36.964 23.0677 43.7122 20.1291 50.5108 17.1906C50.5108 16.26 50.5108 15.4764 50.5108 14.5459C43.0072 11.3624 35.554 8.13001 28.0504 4.94657C26.8921 5.43633 25.7842 5.92609 24.1223 6.66073C30.8705 9.64827 37.1655 12.4399 43.8633 15.4274C38.5252 17.8762 33.5396 20.1781 28.4532 22.48C21.554 19.7373 14.705 16.9947 7.75541 14.203C7.15109 14.3989 6.44605 14.6438 5.64029 14.9377C5.64029 15.7703 5.64029 16.5049 5.64029 17.3865C12.0863 20.325 18.5827 23.3126 25.1295 26.3001C25.1295 28.1612 25.1295 29.9733 25.1295 32.0303C18.5324 29.3856 12.1871 26.8388 5.58993 24.1941C5.58993 25.5655 5.58993 26.6429 5.58993 28.0143C12.036 30.7569 18.5324 33.5975 25.1295 36.4381C25.1295 38.5441 25.1295 40.5521 25.1295 42.9029C18.4317 40.6011 12.2374 37.5646 5.53957 35.1158C5.53957 36.7809 5.53957 38.2502 5.53957 39.9154C12.1367 42.805 18.7842 45.7435 25.482 48.7311C25.482 50.7391 25.482 52.6492 25.482 54.951C16.8705 51.0819 8.46043 47.3597 0 43.5886Z" fill="white"/>
<path d="M80.4421 24.7163H75.9315C75.8491 24.1327 75.6809 23.6144 75.4268 23.1613C75.1728 22.7013 74.8467 22.3099 74.4485 21.9873C74.0503 21.6646 73.5903 21.4174 73.0685 21.2458C72.5536 21.0741 71.9941 20.9883 71.3899 20.9883C70.2983 20.9883 69.3474 21.2595 68.5373 21.8019C67.7272 22.3374 67.099 23.1201 66.6527 24.1499C66.2064 25.1729 65.9833 26.4155 65.9833 27.8779C65.9833 29.3814 66.2064 30.6447 66.6527 31.6677C67.1058 32.6906 67.7375 33.463 68.5476 33.9848C69.3577 34.5066 70.2949 34.7674 71.359 34.7674C71.9563 34.7674 72.509 34.6885 73.017 34.5306C73.532 34.3727 73.9885 34.1427 74.3867 33.8406C74.7849 33.5316 75.1145 33.1575 75.3754 32.7181C75.6431 32.2787 75.8285 31.7775 75.9315 31.2145L80.4421 31.2351C80.3254 32.2032 80.0336 33.1369 79.5668 34.0363C79.1068 34.9288 78.4854 35.7286 77.7028 36.4358C76.927 37.1361 76.0001 37.6922 74.9222 38.1041C73.8512 38.5092 72.6394 38.7117 71.2869 38.7117C69.4058 38.7117 67.7237 38.286 66.2408 37.4347C64.7647 36.5834 63.5975 35.351 62.7393 33.7376C61.888 32.1242 61.4624 30.171 61.4624 27.8779C61.4624 25.5779 61.8949 23.6213 62.7599 22.0079C63.625 20.3945 64.799 19.1655 66.282 18.3211C67.7649 17.4697 69.4332 17.0441 71.2869 17.0441C72.509 17.0441 73.6418 17.2157 74.6854 17.559C75.7358 17.9023 76.6661 18.4035 77.4762 19.0625C78.2863 19.7148 78.9454 20.5146 79.4535 21.462C79.9684 22.4095 80.2979 23.4942 80.4421 24.7163ZM83.6397 38.4233V17.3324H88.0989V34.7468H97.1408V38.4233H83.6397ZM104.267 38.4233H99.4888L106.77 17.3324H112.516L119.787 38.4233H115.008L109.725 22.152H109.561L104.267 38.4233ZM103.969 30.1332H115.256V33.614H103.969V30.1332ZM133.285 23.3981C133.203 22.5674 132.849 21.922 132.225 21.462C131.6 21.0021 130.752 20.7721 129.681 20.7721C128.953 20.7721 128.339 20.875 127.837 21.081C127.336 21.2801 126.952 21.5582 126.684 21.9152C126.423 22.2722 126.293 22.6772 126.293 23.1304C126.279 23.508 126.358 23.8375 126.53 24.119C126.708 24.4005 126.952 24.6442 127.261 24.8502C127.57 25.0493 127.927 25.2244 128.332 25.3754C128.737 25.5196 129.169 25.6432 129.629 25.7461L131.524 26.1993C132.444 26.4052 133.289 26.6798 134.058 27.0231C134.827 27.3664 135.493 27.7886 136.055 28.2898C136.618 28.791 137.054 29.3814 137.363 30.0611C137.679 30.7408 137.841 31.52 137.847 32.3988C137.841 33.6896 137.511 34.8086 136.859 35.7561C136.213 36.6967 135.28 37.4278 134.058 37.9496C132.842 38.4645 131.377 38.722 129.66 38.722C127.958 38.722 126.475 38.4611 125.211 37.9393C123.955 37.4175 122.973 36.6452 122.266 35.6222C121.566 34.5924 121.198 33.3188 121.164 31.8015H125.479C125.527 32.5087 125.73 33.0991 126.087 33.5728C126.451 34.0397 126.935 34.3933 127.539 34.6336C128.15 34.867 128.84 34.9837 129.609 34.9837C130.364 34.9837 131.02 34.8739 131.576 34.6542C132.139 34.4345 132.575 34.129 132.884 33.7376C133.193 33.3463 133.347 32.8966 133.347 32.3885C133.347 31.9148 133.206 31.5166 132.925 31.1939C132.65 30.8713 132.245 30.5966 131.71 30.3701C131.181 30.1435 130.532 29.9375 129.763 29.7522L127.467 29.1755C125.689 28.7429 124.285 28.0667 123.255 27.1467C122.225 26.2267 121.713 24.9875 121.72 23.429C121.713 22.152 122.053 21.0364 122.74 20.0821C123.433 19.1278 124.384 18.3829 125.592 17.8473C126.801 17.3118 128.174 17.0441 129.712 17.0441C131.277 17.0441 132.643 17.3118 133.81 17.8473C134.984 18.3829 135.898 19.1278 136.55 20.0821C137.202 21.0364 137.538 22.1417 137.559 23.3981H133.285ZM152.288 23.3981C152.206 22.5674 151.852 21.922 151.227 21.462C150.603 21.0021 149.755 20.7721 148.684 20.7721C147.956 20.7721 147.342 20.875 146.84 21.081C146.339 21.2801 145.955 21.5582 145.687 21.9152C145.426 22.2722 145.296 22.6772 145.296 23.1304C145.282 23.508 145.361 23.8375 145.532 24.119C145.711 24.4005 145.955 24.6442 146.264 24.8502C146.573 25.0493 146.93 25.2244 147.335 25.3754C147.74 25.5196 148.172 25.6432 148.632 25.7461L150.527 26.1993C151.447 26.4052 152.292 26.6798 153.061 27.0231C153.829 27.3664 154.495 27.7886 155.058 28.2898C155.621 28.791 156.057 29.3814 156.366 30.0611C156.682 30.7408 156.843 31.52 156.85 32.3988C156.843 33.6896 156.514 34.8086 155.862 35.7561C155.216 36.6967 154.283 37.4278 153.061 37.9496C151.845 38.4645 150.38 38.722 148.663 38.722C146.961 38.722 145.478 38.4611 144.214 37.9393C142.958 37.4175 141.976 36.6452 141.269 35.6222C140.569 34.5924 140.201 33.3188 140.167 31.8015H144.482C144.53 32.5087 144.733 33.0991 145.09 33.5728C145.454 34.0397 145.938 34.3933 146.542 34.6336C147.153 34.867 147.843 34.9837 148.612 34.9837C149.367 34.9837 150.023 34.8739 150.579 34.6542C151.142 34.4345 151.578 34.129 151.887 33.7376C152.195 33.3463 152.35 32.8966 152.35 32.3885C152.35 31.9148 152.209 31.5166 151.928 31.1939C151.653 30.8713 151.248 30.5966 150.713 30.3701C150.184 30.1435 149.535 29.9375 148.766 29.7522L146.47 29.1755C144.691 28.7429 143.287 28.0667 142.258 27.1467C141.228 26.2267 140.716 24.9875 140.723 23.429C140.716 22.152 141.056 21.0364 141.743 20.0821C142.436 19.1278 143.387 18.3829 144.595 17.8473C145.804 17.3118 147.177 17.0441 148.715 17.0441C150.28 17.0441 151.646 17.3118 152.813 17.8473C153.987 18.3829 154.901 19.1278 155.553 20.0821C156.205 21.0364 156.541 22.1417 156.562 23.3981H152.288ZM166.562 38.4233V17.3324H180.773V21.0089H171.021V26.0345H180.042V29.711H171.021V34.7468H180.814V38.4233H166.562ZM195.76 23.3981C195.677 22.5674 195.324 21.922 194.699 21.462C194.074 21.0021 193.226 20.7721 192.155 20.7721C191.428 20.7721 190.813 20.875 190.312 21.081C189.811 21.2801 189.426 21.5582 189.159 21.9152C188.898 22.2722 188.767 22.6772 188.767 23.1304C188.754 23.508 188.833 23.8375 189.004 24.119C189.183 24.4005 189.426 24.6442 189.735 24.8502C190.044 25.0493 190.401 25.2244 190.806 25.3754C191.211 25.5196 191.644 25.6432 192.104 25.7461L193.999 26.1993C194.919 26.4052 195.763 26.6798 196.532 27.0231C197.301 27.3664 197.967 27.7886 198.53 28.2898C199.093 28.791 199.529 29.3814 199.838 30.0611C200.154 30.7408 200.315 31.52 200.322 32.3988C200.315 33.6896 199.986 34.8086 199.333 35.7561C198.688 36.6967 197.754 37.4278 196.532 37.9496C195.317 38.4645 193.851 38.722 192.135 38.722C190.432 38.722 188.949 38.4611 187.686 37.9393C186.43 37.4175 185.448 36.6452 184.741 35.6222C184.04 34.5924 183.673 33.3188 183.639 31.8015H187.954C188.002 32.5087 188.204 33.0991 188.561 33.5728C188.925 34.0397 189.409 34.3933 190.013 34.6336C190.624 34.867 191.314 34.9837 192.083 34.9837C192.839 34.9837 193.494 34.8739 194.05 34.6542C194.613 34.4345 195.049 34.129 195.358 33.7376C195.667 33.3463 195.822 32.8966 195.822 32.3885C195.822 31.9148 195.681 31.5166 195.399 31.1939C195.125 30.8713 194.72 30.5966 194.184 30.3701C193.656 30.1435 193.007 29.9375 192.238 29.7522L189.941 29.1755C188.163 28.7429 186.759 28.0667 185.729 27.1467C184.699 26.2267 184.188 24.9875 184.195 23.429C184.188 22.152 184.528 21.0364 185.214 20.0821C185.908 19.1278 186.859 18.3829 188.067 17.8473C189.275 17.3118 190.648 17.0441 192.186 17.0441C193.752 17.0441 195.118 17.3118 196.285 17.8473C197.459 18.3829 198.372 19.1278 199.024 20.0821C199.677 21.0364 200.013 22.1417 200.034 23.3981H195.76ZM221.93 24.7163H217.42C217.337 24.1327 217.169 23.6144 216.915 23.1613C216.661 22.7013 216.335 22.3099 215.937 21.9873C215.539 21.6646 215.079 21.4174 214.557 21.2458C214.042 21.0741 213.482 20.9883 212.878 20.9883C211.787 20.9883 210.836 21.2595 210.026 21.8019C209.215 22.3374 208.587 23.1201 208.141 24.1499C207.695 25.1729 207.472 26.4155 207.472 27.8779C207.472 29.3814 207.695 30.6447 208.141 31.6677C208.594 32.6906 209.226 33.463 210.036 33.9848C210.846 34.5066 211.783 34.7674 212.847 34.7674C213.445 34.7674 213.997 34.6885 214.505 34.5306C215.02 34.3727 215.477 34.1427 215.875 33.8406C216.273 33.5316 216.603 33.1575 216.864 32.7181C217.131 32.2787 217.317 31.7775 217.42 31.2145L221.93 31.2351C221.814 32.2032 221.522 33.1369 221.055 34.0363C220.595 34.9288 219.974 35.7286 219.191 36.4358C218.415 37.1361 217.488 37.6922 216.411 38.1041C215.339 38.5092 214.128 38.7117 212.775 38.7117C210.894 38.7117 209.212 38.286 207.729 37.4347C206.253 36.5834 205.086 35.351 204.228 33.7376C203.376 32.1242 202.951 30.171 202.951 27.8779C202.951 25.5779 203.383 23.6213 204.248 22.0079C205.113 20.3945 206.287 19.1655 207.77 18.3211C209.253 17.4697 210.922 17.0441 212.775 17.0441C213.997 17.0441 215.13 17.2157 216.174 17.559C217.224 17.9023 218.154 18.4035 218.964 19.0625C219.775 19.7148 220.434 20.5146 220.942 21.462C221.457 22.4095 221.786 23.4942 221.93 24.7163Z" fill="white"/>
</svg>
