<svg width="164" height="156" viewBox="0 0 164 156" fill="none" xmlns="http://www.w3.org/2000/svg">
<path d="M20.4417 141.517H15.9311C15.8487 140.936 15.6805 140.422 15.4264 139.972C15.1724 139.515 14.8463 139.125 14.4481 138.805C14.0499 138.484 13.5899 138.239 13.0681 138.068C12.5532 137.898 11.9937 137.812 11.3895 137.812C10.2979 137.812 9.34697 138.082 8.53684 138.62C7.7267 139.153 7.09851 139.931 6.65225 140.953C6.20599 141.97 5.98286 143.205 5.98286 144.658C5.98286 146.152 6.20599 147.407 6.65225 148.423C7.10537 149.44 7.737 150.208 8.54714 150.726C9.35727 151.244 10.2945 151.504 11.3586 151.504C11.9559 151.504 12.5086 151.425 13.0166 151.268C13.5316 151.111 13.9881 150.883 14.3863 150.583C14.7845 150.276 15.1141 149.904 15.375 149.468C15.6427 149.031 15.8281 148.533 15.9311 147.973L20.4417 147.994C20.325 148.956 20.0332 149.883 19.5664 150.777C19.1064 151.664 18.485 152.459 17.7024 153.161C16.9266 153.858 15.9997 154.41 14.9218 154.819C13.8508 155.222 12.639 155.423 11.2865 155.423C9.40533 155.423 7.72327 155 6.24032 154.154C4.76423 153.308 3.59709 152.084 2.7389 150.48C1.88757 148.878 1.46191 146.936 1.46191 144.658C1.46191 142.372 1.89444 140.429 2.75949 138.825C3.62455 137.222 4.79856 136.001 6.28151 135.162C7.76447 134.316 9.43279 133.894 11.2865 133.894C12.5086 133.894 13.6414 134.063 14.685 134.405C15.7354 134.746 16.6657 135.244 17.4758 135.899C18.2859 136.547 18.945 137.341 19.4531 138.283C19.968 139.224 20.2975 140.302 20.4417 141.517ZM23.6393 155.136V134.18H28.0985V151.483H37.1404V155.136H23.6393ZM44.2668 155.136H39.4884L46.7693 134.18H52.5158L59.7864 155.136H55.0079L49.7249 138.969H49.5601L44.2668 155.136ZM43.9682 146.899H55.2551V150.358H43.9682V146.899ZM73.2848 140.207C73.2025 139.381 72.8489 138.74 72.2241 138.283C71.5994 137.826 70.7515 137.598 69.6804 137.598C68.9527 137.598 68.3382 137.7 67.837 137.905C67.3359 138.103 66.9514 138.379 66.6836 138.734C66.4227 139.088 66.2923 139.491 66.2923 139.941C66.2786 140.315 66.3575 140.643 66.5292 140.923C66.7077 141.203 66.9514 141.445 67.2603 141.65C67.5693 141.848 67.9263 142.021 68.3314 142.171C68.7364 142.315 69.169 142.438 69.629 142.54L71.5238 142.99C72.4438 143.195 73.2883 143.467 74.0572 143.809C74.8262 144.15 75.4921 144.569 76.0551 145.067C76.6181 145.566 77.054 146.152 77.363 146.828C77.6788 147.502 77.8401 148.277 77.847 149.15C77.8401 150.433 77.5106 151.544 76.8584 152.486C76.213 153.42 75.2793 154.147 74.0572 154.665C72.842 155.177 71.3762 155.433 69.6598 155.433C67.9572 155.433 66.4742 155.174 65.211 154.655C63.9546 154.137 62.9728 153.37 62.2657 152.353C61.5654 151.33 61.1981 150.064 61.1638 148.557H65.4787C65.5268 149.259 65.7293 149.846 66.0863 150.316C66.4502 150.78 66.9342 151.132 67.5384 151.371C68.1494 151.603 68.8394 151.718 69.6084 151.718C70.3636 151.718 71.0192 151.609 71.5753 151.391C72.1383 151.173 72.5743 150.869 72.8832 150.48C73.1922 150.092 73.3466 149.645 73.3466 149.14C73.3466 148.669 73.2059 148.273 72.9244 147.952C72.6498 147.632 72.2447 147.359 71.7092 147.135C71.1806 146.909 70.5318 146.704 69.7628 146.521L67.4663 145.947C65.6881 145.517 64.2841 144.845 63.2543 143.931C62.2245 143.017 61.713 141.786 61.7199 140.238C61.713 138.969 62.0528 137.86 62.7394 136.912C63.4328 135.963 64.3837 135.223 65.592 134.691C66.8004 134.159 68.1735 133.894 69.7113 133.894C71.2767 133.894 72.6429 134.159 73.8101 134.691C74.9841 135.223 75.8972 135.963 76.5494 136.912C77.2016 137.86 77.538 138.958 77.5586 140.207H73.2848ZM92.2878 140.207C92.2054 139.381 91.8518 138.74 91.2271 138.283C90.6023 137.826 89.7544 137.598 88.6834 137.598C87.9556 137.598 87.3412 137.7 86.84 137.905C86.3388 138.103 85.9543 138.379 85.6866 138.734C85.4257 139.088 85.2952 139.491 85.2952 139.941C85.2815 140.315 85.3605 140.643 85.5321 140.923C85.7106 141.203 85.9543 141.445 86.2633 141.65C86.5722 141.848 86.9292 142.021 87.3343 142.171C87.7394 142.315 88.1719 142.438 88.6319 142.54L90.5268 142.99C91.4467 143.195 92.2912 143.467 93.0601 143.809C93.8291 144.15 94.495 144.569 95.058 145.067C95.621 145.566 96.057 146.152 96.3659 146.828C96.6817 147.502 96.8431 148.277 96.8499 149.15C96.8431 150.433 96.5135 151.544 95.8613 152.486C95.2159 153.42 94.2822 154.147 93.0601 154.665C91.8449 155.177 90.3792 155.433 88.6628 155.433C86.9601 155.433 85.4772 155.174 84.2139 154.655C82.9575 154.137 81.9757 153.37 81.2686 152.353C80.5683 151.33 80.201 150.064 80.1667 148.557H84.4817C84.5297 149.259 84.7323 149.846 85.0893 150.316C85.4531 150.78 85.9372 151.132 86.5413 151.371C87.1524 151.603 87.8423 151.718 88.6113 151.718C89.3665 151.718 90.0221 151.609 90.5783 151.391C91.1412 151.173 91.5772 150.869 91.8861 150.48C92.1951 150.092 92.3496 149.645 92.3496 149.14C92.3496 148.669 92.2088 148.273 91.9273 147.952C91.6527 147.632 91.2476 147.359 90.7121 147.135C90.1835 146.909 89.5347 146.704 88.7658 146.521L86.4692 145.947C84.6911 145.517 83.2871 144.845 82.2572 143.931C81.2274 143.017 80.7159 141.786 80.7228 140.238C80.7159 138.969 81.0558 137.86 81.7423 136.912C82.4357 135.963 83.3866 135.223 84.5949 134.691C85.8033 134.159 87.1764 133.894 88.7143 133.894C90.2796 133.894 91.6458 134.159 92.813 134.691C93.987 135.223 94.9001 135.963 95.5523 136.912C96.2046 137.86 96.541 138.958 96.5616 140.207H92.2878ZM106.562 155.136V134.18H120.773V137.832H111.021V142.826H120.042V146.48H111.021V151.483H120.814V155.136H106.562ZM135.76 140.207C135.677 139.381 135.324 138.74 134.699 138.283C134.074 137.826 133.226 137.598 132.155 137.598C131.428 137.598 130.813 137.7 130.312 137.905C129.811 138.103 129.426 138.379 129.159 138.734C128.898 139.088 128.767 139.491 128.767 139.941C128.754 140.315 128.833 140.643 129.004 140.923C129.183 141.203 129.426 141.445 129.735 141.65C130.044 141.848 130.401 142.021 130.806 142.171C131.211 142.315 131.644 142.438 132.104 142.54L133.999 142.99C134.919 143.195 135.763 143.467 136.532 143.809C137.301 144.15 137.967 144.569 138.53 145.067C139.093 145.566 139.529 146.152 139.838 146.828C140.154 147.502 140.315 148.277 140.322 149.15C140.315 150.433 139.986 151.544 139.333 152.486C138.688 153.42 137.754 154.147 136.532 154.665C135.317 155.177 133.851 155.433 132.135 155.433C130.432 155.433 128.949 155.174 127.686 154.655C126.43 154.137 125.448 153.37 124.741 152.353C124.04 151.33 123.673 150.064 123.639 148.557H127.954C128.002 149.259 128.204 149.846 128.561 150.316C128.925 150.78 129.409 151.132 130.013 151.371C130.624 151.603 131.314 151.718 132.083 151.718C132.839 151.718 133.494 151.609 134.05 151.391C134.613 151.173 135.049 150.869 135.358 150.48C135.667 150.092 135.822 149.645 135.822 149.14C135.822 148.669 135.681 148.273 135.399 147.952C135.125 147.632 134.72 147.359 134.184 147.135C133.656 146.909 133.007 146.704 132.238 146.521L129.941 145.947C128.163 145.517 126.759 144.845 125.729 143.931C124.699 143.017 124.188 141.786 124.195 140.238C124.188 138.969 124.528 137.86 125.214 136.912C125.908 135.963 126.859 135.223 128.067 134.691C129.275 134.159 130.648 133.894 132.186 133.894C133.752 133.894 135.118 134.159 136.285 134.691C137.459 135.223 138.372 135.963 139.024 136.912C139.677 137.86 140.013 138.958 140.034 140.207H135.76ZM161.93 141.517H157.42C157.337 140.936 157.169 140.422 156.915 139.972C156.661 139.515 156.335 139.125 155.937 138.805C155.539 138.484 155.079 138.239 154.557 138.068C154.042 137.898 153.482 137.812 152.878 137.812C151.787 137.812 150.836 138.082 150.026 138.62C149.215 139.153 148.587 139.931 148.141 140.953C147.695 141.97 147.472 143.205 147.472 144.658C147.472 146.152 147.695 147.407 148.141 148.423C148.594 149.44 149.226 150.208 150.036 150.726C150.846 151.244 151.783 151.504 152.847 151.504C153.445 151.504 153.997 151.425 154.505 151.268C155.02 151.111 155.477 150.883 155.875 150.583C156.273 150.276 156.603 149.904 156.864 149.468C157.131 149.031 157.317 148.533 157.42 147.973L161.93 147.994C161.814 148.956 161.522 149.883 161.055 150.777C160.595 151.664 159.974 152.459 159.191 153.161C158.415 153.858 157.488 154.41 156.411 154.819C155.339 155.222 154.128 155.423 152.775 155.423C150.894 155.423 149.212 155 147.729 154.154C146.253 153.308 145.086 152.084 144.228 150.48C143.376 148.878 142.951 146.936 142.951 144.658C142.951 142.372 143.383 140.429 144.248 138.825C145.113 137.222 146.287 136.001 147.77 135.162C149.253 134.316 150.922 133.894 152.775 133.894C153.997 133.894 155.13 134.063 156.174 134.405C157.224 134.746 158.154 135.244 158.964 135.899C159.775 136.547 160.434 137.341 160.942 138.283C161.457 139.224 161.786 140.302 161.93 141.517Z" fill="black"/>
<path d="M23 97.5492C23 74.0935 23 50.8571 23 27.2919C28.1996 24.7709 33.3993 22.25 38.9173 19.6194C52.5 26.0862 66.1889 32.6625 80.0899 39.2389C82.8489 37.814 85.6079 36.3891 89.4281 34.5258C75.6331 28.0591 62.8993 22.0308 49.5288 15.7832C60.4586 10.303 70.6457 5.15148 81.045 0C100.995 8.98768 120.944 17.9754 141 26.9631C141 34.0874 141 40.8829 141 48.2266C127.311 54.6933 113.516 61.2696 99.509 67.846C99.509 79.0258 99.509 89.9864 99.509 101.824C113.516 96.6723 126.781 90.3153 140.894 84.8349C140.894 89.3288 140.894 93.3842 140.894 98.0972C123.597 106.208 105.876 114.538 87.7302 123.087C87.4119 101.166 86.9874 79.9026 86.6691 58.2007C100.888 51.6244 115.108 45.048 129.433 38.4717C129.433 36.3891 129.433 34.6355 129.433 32.5529C113.622 25.4286 97.9173 18.1946 82.1061 11.0702C79.6655 12.1662 77.331 13.2623 73.8292 14.9064C88.0486 21.5924 101.313 27.8398 115.426 34.5258C104.178 40.0062 93.6727 45.1576 82.955 50.3091C68.4173 44.1712 53.9856 38.0332 39.3417 31.7856C38.0684 32.2241 36.5827 32.7721 34.8849 33.4298C34.8849 35.2931 34.8849 36.9371 34.8849 38.9101C48.4676 45.4864 62.1565 52.1724 75.9515 58.8583C75.9515 63.0233 75.9515 67.0788 75.9515 71.6822C62.0504 65.7635 48.6799 60.064 34.7788 54.1453C34.7788 57.2142 34.7788 59.6256 34.7788 62.6945C48.3615 68.8325 62.0504 75.1896 75.9515 81.5468C75.9515 86.2598 75.9515 90.7537 75.9515 96.0147C61.8381 90.8632 48.786 84.0677 34.6727 78.5873C34.6727 82.314 34.6727 85.6022 34.6727 89.3288C48.5737 95.7954 62.5809 102.372 76.6942 109.058C76.6942 113.552 76.6942 117.827 76.6942 122.978C58.5486 114.319 40.8273 105.989 23 97.5492Z" fill="black"/>
</svg>
