<svg width="141" height="35" viewBox="0 0 141 35" fill="none" xmlns="http://www.w3.org/2000/svg">
<g clip-path="url(#clip0_176_100)">
<path d="M0 27.7382C0 21.0685 0 14.4613 0 7.76045C1.54227 7.04365 3.08453 6.32681 4.72122 5.57882C8.75 7.41765 12.8103 9.2876 16.9334 11.1576C17.7518 10.7524 18.5701 10.3473 19.7032 9.81744C15.6115 7.9786 11.8345 6.26448 7.86869 4.48799C11.1106 2.92966 14.1322 1.46483 17.2168 0C23.134 2.55566 29.0513 5.11131 35 7.66697C35 9.69277 35 11.6251 35 13.7133C30.9398 15.5521 26.848 17.4221 22.6934 19.2921C22.6934 22.4711 22.6934 25.5877 22.6934 28.9537C26.848 27.4889 30.7824 25.6812 34.9685 24.1229C34.9685 25.4007 34.9685 26.5539 34.9685 27.894C29.8381 30.2004 24.5818 32.569 19.1996 35C19.1052 28.7667 18.9793 22.7204 18.8849 16.5494C23.1025 14.6794 27.3201 12.8094 31.5692 10.9395C31.5692 10.3473 31.5692 9.84862 31.5692 9.25648C26.8795 7.23062 22.2212 5.17364 17.5315 3.14782C16.8076 3.45948 16.1151 3.77115 15.0764 4.23865C19.2941 6.13981 23.2284 7.9163 27.4146 9.81744C24.0783 11.3758 20.9622 12.8406 17.7832 14.3055C13.4712 12.5601 9.19063 10.8148 4.84713 9.03827C4.46943 9.16294 4.02878 9.31878 3.52518 9.50581C3.52518 10.0356 3.52518 10.5031 3.52518 11.0641C7.55394 12.9341 11.6142 14.8353 15.7059 16.7364C15.7059 17.9208 15.7059 19.0739 15.7059 20.3829C11.5827 18.6999 7.61694 17.0792 3.49371 15.3962C3.49371 16.269 3.49371 16.9546 3.49371 17.8273C7.5225 19.5726 11.5827 21.3802 15.7059 23.1879C15.7059 24.5281 15.7059 25.8059 15.7059 27.3018C11.5198 25.8371 7.64838 23.9047 3.46223 22.3464C3.46223 23.406 3.46223 24.341 3.46223 25.4007C7.58544 27.2395 11.7401 29.1095 15.9263 31.0107C15.9263 32.2885 15.9263 33.504 15.9263 34.9688C10.5441 32.5067 5.28777 30.138 0 27.7382Z" fill="white"/>
<path d="M52.2764 15.7285H49.4573C49.4058 15.3571 49.3006 15.0273 49.1418 14.739C48.9831 14.4462 48.7793 14.1972 48.5304 13.9919C48.2815 13.7865 47.994 13.6292 47.6679 13.52C47.3461 13.4107 46.9964 13.3561 46.6188 13.3561C45.9365 13.3561 45.3422 13.5287 44.8359 13.8739C44.3296 14.2147 43.9369 14.7127 43.658 15.3681C43.3791 16.0191 43.2396 16.8098 43.2396 17.7404C43.2396 18.6972 43.3791 19.5011 43.658 20.1521C43.9412 20.8031 44.336 21.2946 44.8423 21.6266C45.3486 21.9587 45.9344 22.1247 46.5994 22.1247C46.9728 22.1247 47.3182 22.0744 47.6357 21.974C47.9576 21.8735 48.2429 21.7271 48.4918 21.5349C48.7406 21.3382 48.9466 21.1002 49.1097 20.8206C49.277 20.5409 49.3929 20.222 49.4573 19.8637L52.2764 19.8768C52.2034 20.4929 52.0211 21.0871 51.7293 21.6594C51.4418 22.2274 51.0534 22.7363 50.5643 23.1864C50.0794 23.632 49.5001 23.9859 48.8264 24.248C48.1571 24.5058 47.3997 24.6347 46.5544 24.6347C45.3787 24.6347 44.3274 24.3638 43.4006 23.822C42.478 23.2803 41.7485 22.496 41.2121 21.4693C40.6801 20.4426 40.4141 19.1997 40.4141 17.7404C40.4141 16.2768 40.6844 15.0317 41.225 14.005C41.7657 12.9783 42.4994 12.1962 43.4263 11.6588C44.3531 11.117 45.3958 10.8462 46.5544 10.8462C47.3182 10.8462 48.0262 10.9554 48.6784 11.1739C49.3349 11.3923 49.9164 11.7113 50.4227 12.1306C50.929 12.5457 51.3409 13.0547 51.6585 13.6576C51.9803 14.2605 52.1863 14.9508 52.2764 15.7285ZM54.2749 24.4511V11.0297H57.0619V22.1115H62.7131V24.4511H54.2749ZM67.1669 24.4511H64.1806L68.7313 11.0297H72.3226L76.8669 24.4511H73.8801L70.5782 14.0967H70.4757L67.1669 24.4511ZM66.9807 19.1756H74.0351V21.3907H66.9807V19.1756ZM85.3032 14.8896C85.2519 14.361 85.0307 13.9503 84.6407 13.6576C84.2501 13.3649 83.7201 13.2186 83.0507 13.2186C82.5957 13.2186 82.2119 13.284 81.8982 13.4151C81.5851 13.5418 81.3451 13.7188 81.1776 13.946C81.0144 14.1732 80.9332 14.4309 80.9332 14.7193C80.9244 14.9596 80.9738 15.1693 81.0813 15.3484C81.1926 15.5275 81.3451 15.6826 81.5382 15.8137C81.7313 15.9404 81.9544 16.0518 82.2076 16.1479C82.4607 16.2397 82.7307 16.3183 83.0182 16.3838L84.2026 16.6722C84.7776 16.8033 85.3057 16.978 85.7863 17.1965C86.2669 17.4149 86.6832 17.6836 87.0344 18.0025C87.3863 18.3215 87.6588 18.6972 87.8519 19.1297C88.0494 19.5623 88.1507 20.0581 88.1544 20.6174C88.1507 21.4388 87.9444 22.1509 87.5369 22.7538C87.1332 23.3524 86.5501 23.8176 85.7863 24.1497C85.0263 24.4774 84.1107 24.6412 83.0376 24.6412C81.9738 24.6412 81.0469 24.4752 80.2569 24.1431C79.4719 23.8111 78.8582 23.3196 78.4163 22.6686C77.9788 22.0133 77.7488 21.2028 77.7276 20.2373H80.4244C80.4544 20.6873 80.5813 21.063 80.8044 21.3645C81.0319 21.6616 81.3344 21.8866 81.7119 22.0395C82.0938 22.188 82.5251 22.2623 83.0057 22.2623C83.4776 22.2623 83.8876 22.1924 84.2351 22.0526C84.5869 21.9128 84.8594 21.7184 85.0526 21.4693C85.2457 21.2203 85.3419 20.9341 85.3419 20.6108C85.3419 20.3094 85.2538 20.056 85.0782 19.8506C84.9063 19.6453 84.6532 19.4705 84.3188 19.3264C83.9882 19.1822 83.5826 19.0511 83.1019 18.9332L81.6669 18.5662C80.5557 18.2909 79.6782 17.8606 79.0344 17.2751C78.3907 16.6897 78.0707 15.9011 78.0751 14.9093C78.0707 14.0967 78.2832 13.3867 78.7126 12.7795C79.1457 12.1722 79.7401 11.6982 80.4951 11.3573C81.2507 11.0165 82.1088 10.8462 83.0701 10.8462C84.0482 10.8462 84.9019 11.0165 85.6313 11.3573C86.3651 11.6982 86.9363 12.1722 87.3438 12.7795C87.7513 13.3867 87.9613 14.0901 87.9744 14.8896H85.3032ZM97.1801 14.8896C97.1288 14.361 96.9076 13.9503 96.5169 13.6576C96.1269 13.3649 95.5969 13.2186 94.9276 13.2186C94.4726 13.2186 94.0888 13.284 93.7751 13.4151C93.4619 13.5418 93.2219 13.7188 93.0544 13.946C92.8913 14.1732 92.8101 14.4309 92.8101 14.7193C92.8013 14.9596 92.8507 15.1693 92.9576 15.3484C93.0694 15.5275 93.2219 15.6826 93.4151 15.8137C93.6082 15.9404 93.8313 16.0518 94.0844 16.1479C94.3376 16.2397 94.6076 16.3183 94.8951 16.3838L96.0794 16.6722C96.6544 16.8033 97.1826 16.978 97.6632 17.1965C98.1432 17.4149 98.5594 17.6836 98.9113 18.0025C99.2632 18.3215 99.5357 18.6972 99.7288 19.1297C99.9263 19.5623 100.027 20.0581 100.031 20.6174C100.027 21.4388 99.8213 22.1509 99.4138 22.7538C99.0101 23.3524 98.4269 23.8176 97.6632 24.1497C96.9032 24.4774 95.9876 24.6412 94.9144 24.6412C93.8507 24.6412 92.9238 24.4752 92.1338 24.1431C91.3488 23.8111 90.7351 23.3196 90.2932 22.6686C89.8557 22.0133 89.6257 21.2028 89.6044 20.2373H92.3013C92.3313 20.6873 92.4582 21.063 92.6813 21.3645C92.9088 21.6616 93.2113 21.8866 93.5888 22.0395C93.9707 22.188 94.4019 22.2623 94.8826 22.2623C95.3544 22.2623 95.7644 22.1924 96.1119 22.0526C96.4638 21.9128 96.7363 21.7184 96.9294 21.4693C97.1219 21.2203 97.2188 20.9341 97.2188 20.6108C97.2188 20.3094 97.1307 20.056 96.9551 19.8506C96.7832 19.6453 96.5301 19.4705 96.1957 19.3264C95.8651 19.1822 95.4594 19.0511 94.9788 18.9332L93.5438 18.5662C92.4319 18.2909 91.5544 17.8606 90.9113 17.2751C90.2676 16.6897 89.9476 15.9011 89.9519 14.9093C89.9476 14.0967 90.1601 13.3867 90.5894 12.7795C91.0226 12.1722 91.6169 11.6982 92.3719 11.3573C93.1276 11.0165 93.9857 10.8462 94.9469 10.8462C95.9251 10.8462 96.7788 11.0165 97.5082 11.3573C98.2419 11.6982 98.8132 12.1722 99.2207 12.7795C99.6282 13.3867 99.8382 14.0901 99.8513 14.8896H97.1801ZM106.101 24.4511V11.0297H114.983V13.3692H108.888V16.5674H114.526V18.9069H108.888V22.1115H115.009V24.4511H106.101ZM124.35 14.8896C124.298 14.361 124.078 13.9503 123.687 13.6576C123.296 13.3649 122.766 13.2186 122.097 13.2186C121.643 13.2186 121.258 13.284 120.945 13.4151C120.632 13.5418 120.391 13.7188 120.224 13.946C120.061 14.1732 119.979 14.4309 119.979 14.7193C119.971 14.9596 120.021 15.1693 120.128 15.3484C120.239 15.5275 120.391 15.6826 120.584 15.8137C120.778 15.9404 121.001 16.0518 121.254 16.1479C121.507 16.2397 121.778 16.3183 122.065 16.3838L123.249 16.6722C123.824 16.8033 124.352 16.978 124.833 17.1965C125.313 17.4149 125.729 17.6836 126.081 18.0025C126.433 18.3215 126.706 18.6972 126.899 19.1297C127.096 19.5623 127.197 20.0581 127.201 20.6174C127.197 21.4388 126.991 22.1509 126.583 22.7538C126.18 23.3524 125.596 23.8176 124.833 24.1497C124.073 24.4774 123.157 24.6412 122.084 24.6412C121.02 24.6412 120.093 24.4752 119.304 24.1431C118.519 23.8111 117.905 23.3196 117.463 22.6686C117.025 22.0133 116.796 21.2028 116.774 20.2373H119.471C119.501 20.6873 119.628 21.063 119.851 21.3645C120.078 21.6616 120.381 21.8866 120.758 22.0395C121.14 22.188 121.571 22.2623 122.052 22.2623C122.524 22.2623 122.934 22.1924 123.281 22.0526C123.633 21.9128 123.906 21.7184 124.099 21.4693C124.292 21.2203 124.389 20.9341 124.389 20.6108C124.389 20.3094 124.301 20.056 124.124 19.8506C123.953 19.6453 123.7 19.4705 123.365 19.3264C123.035 19.1822 122.629 19.0511 122.149 18.9332L120.713 18.5662C119.602 18.2909 118.724 17.8606 118.081 17.2751C117.437 16.6897 117.118 15.9011 117.122 14.9093C117.118 14.0967 117.33 13.3867 117.759 12.7795C118.193 12.1722 118.787 11.6982 119.542 11.3573C120.297 11.0165 121.155 10.8462 122.116 10.8462C123.095 10.8462 123.949 11.0165 124.678 11.3573C125.412 11.6982 125.983 12.1722 126.39 12.7795C126.798 13.3867 127.008 14.0901 127.021 14.8896H124.35ZM140.706 15.7285H137.888C137.836 15.3571 137.731 15.0273 137.572 14.739C137.413 14.4462 137.209 14.1972 136.961 13.9919C136.712 13.7865 136.424 13.6292 136.098 13.52C135.776 13.4107 135.426 13.3561 135.049 13.3561C134.367 13.3561 133.773 13.5287 133.266 13.8739C132.759 14.2147 132.367 14.7127 132.088 15.3681C131.809 16.0191 131.67 16.8098 131.67 17.7404C131.67 18.6972 131.809 19.5011 132.088 20.1521C132.371 20.8031 132.766 21.2946 133.273 21.6266C133.779 21.9587 134.364 22.1247 135.029 22.1247C135.403 22.1247 135.748 22.0744 136.066 21.974C136.388 21.8735 136.673 21.7271 136.922 21.5349C137.171 21.3382 137.377 21.1002 137.54 20.8206C137.707 20.5409 137.823 20.222 137.888 19.8637L140.706 19.8768C140.634 20.4929 140.451 21.0871 140.159 21.6594C139.872 22.2274 139.484 22.7363 138.994 23.1864C138.509 23.632 137.93 23.9859 137.257 24.248C136.587 24.5058 135.83 24.6347 134.984 24.6347C133.809 24.6347 132.758 24.3638 131.831 23.822C130.908 23.2803 130.179 22.496 129.643 21.4693C129.11 20.4426 128.844 19.1997 128.844 17.7404C128.844 16.2768 129.114 15.0317 129.655 14.005C130.196 12.9783 130.929 12.1962 131.856 11.6588C132.783 11.117 133.826 10.8462 134.984 10.8462C135.748 10.8462 136.456 10.9554 137.109 11.1739C137.765 11.3923 138.346 11.7113 138.853 12.1306C139.359 12.5457 139.771 13.0547 140.089 13.6576C140.411 14.2605 140.616 14.9508 140.706 15.7285Z" fill="white"/>
</g>
<defs>
<clipPath id="clip0_176_100">
<rect width="141" height="35" fill="white"/>
</clipPath>
</defs>
</svg>
