<svg width="100" height="93" viewBox="0 0 100 93" fill="none" xmlns="http://www.w3.org/2000/svg">
<path d="M12.4646 84.3658H9.71425C9.664 84.0199 9.56144 83.7131 9.4065 83.4447C9.25163 83.1723 9.05278 82.9401 8.80998 82.7493C8.56717 82.558 8.28669 82.4117 7.96852 82.3098C7.65455 82.2085 7.31339 82.1575 6.94498 82.1575C6.27937 82.1575 5.69956 82.3181 5.20558 82.6391C4.7116 82.9566 4.32855 83.4204 4.05644 84.03C3.78433 84.636 3.64828 85.3723 3.64828 86.2383C3.64828 87.1292 3.78433 87.8773 4.05644 88.4833C4.33274 89.0893 4.71788 89.5472 5.21186 89.8558C5.70585 90.165 6.2773 90.3196 6.92614 90.3196C7.29035 90.3196 7.62736 90.2728 7.93711 90.1792C8.25114 90.0857 8.52949 89.9494 8.7723 89.7705C9.0151 89.5875 9.21608 89.3659 9.37516 89.1059C9.53839 88.8452 9.65144 88.5485 9.71425 88.215L12.4646 88.2274C12.3935 88.8008 12.2155 89.3535 11.9309 89.8866C11.6504 90.415 11.2715 90.8889 10.7943 91.3077C10.3213 91.7229 9.75608 92.0523 9.09882 92.2963C8.44577 92.5362 7.70687 92.6559 6.88217 92.6559C5.73515 92.6559 4.7095 92.4041 3.80527 91.8994C2.90521 91.3953 2.19354 90.6656 1.67025 89.7095C1.15115 88.754 0.891602 87.5966 0.891602 86.2383C0.891602 84.8759 1.15534 83.7172 1.68281 82.7612C2.21028 81.8057 2.92614 81.0777 3.83038 80.5777C4.73463 80.073 5.75189 79.8213 6.88217 79.8213C7.62736 79.8213 8.31809 79.9226 8.95443 80.1264C9.59492 80.3295 10.1622 80.6263 10.6561 81.0167C11.1501 81.4029 11.552 81.8768 11.8618 82.4383C12.1758 82.9993 12.3767 83.642 12.4646 84.3658ZM14.4144 92.4853V79.9919H17.1334V90.3072H22.6467V92.4853H14.4144ZM26.9921 92.4853H24.0785L28.518 79.9919H32.022L36.4553 92.4853H33.5416L30.3202 82.847H30.2197L26.9921 92.4853ZM26.81 87.5746H33.6923V89.6366H26.81V87.5746ZM44.686 83.5851C44.6358 83.0929 44.4202 82.7108 44.0393 82.4383C43.6583 82.1658 43.1413 82.0296 42.4882 82.0296C42.0445 82.0296 41.6698 82.0906 41.3642 82.2126C41.0586 82.3305 40.8242 82.4952 40.6609 82.7067C40.5018 82.9181 40.4223 83.158 40.4223 83.4264C40.4139 83.6497 40.4621 83.8452 40.5668 84.0122C40.6756 84.1787 40.8242 84.3232 41.0125 84.4452C41.201 84.5631 41.4186 84.6668 41.6657 84.7562C41.9126 84.8415 42.1764 84.915 42.4569 84.976L43.6122 85.2443C44.1732 85.3663 44.6882 85.5286 45.157 85.7324C45.6259 85.9356 46.0319 86.1856 46.3752 86.4823C46.7185 86.7797 46.9843 87.1292 47.1727 87.532C47.3653 87.9342 47.4636 88.3962 47.4678 88.9163C47.4636 89.6811 47.2627 90.3439 46.865 90.9055C46.4715 91.4623 45.9022 91.8953 45.157 92.2045C44.416 92.5096 43.5222 92.6624 42.4757 92.6624C41.4375 92.6624 40.5332 92.5078 39.763 92.1986C38.9969 91.8894 38.3982 91.4321 37.9671 90.8261C37.54 90.216 37.3161 89.4613 37.2952 88.5627H39.9262C39.9555 88.9815 40.079 89.3316 40.2967 89.6118C40.5186 89.8884 40.8137 90.0981 41.1821 90.2403C41.5547 90.3789 41.9754 90.4476 42.4443 90.4476C42.9048 90.4476 43.3046 90.3824 43.6436 90.2527C43.9869 90.1224 44.2528 89.9411 44.4411 89.7095C44.6296 89.4779 44.7237 89.2113 44.7237 88.9104C44.7237 88.6296 44.6379 88.3939 44.4663 88.2025C44.2988 88.0118 44.0518 87.8489 43.7253 87.715C43.403 87.5806 43.0074 87.4585 42.5385 87.349L41.1382 87.0072C40.0539 86.7507 39.1978 86.3502 38.5699 85.8053C37.9419 85.2603 37.63 84.5264 37.6342 83.6035C37.63 82.847 37.8372 82.186 38.2559 81.6209C38.6787 81.0552 39.2585 80.6139 39.9953 80.2969C40.7321 79.9794 41.5694 79.8213 42.5071 79.8213C43.4616 79.8213 44.2946 79.9794 45.0063 80.2969C45.7222 80.6139 46.2789 81.0552 46.6766 81.6209C47.0743 82.186 47.2794 82.8405 47.292 83.5851H44.686ZM56.2732 83.5851C56.223 83.0929 56.0074 82.7108 55.6264 82.4383C55.2455 82.1658 54.7285 82.0296 54.0754 82.0296C53.6316 82.0296 53.257 82.0906 52.9514 82.2126C52.6458 82.3305 52.4113 82.4952 52.2481 82.7067C52.089 82.9181 52.0094 83.158 52.0094 83.4264C52.0011 83.6497 52.0493 83.8452 52.1539 84.0122C52.2627 84.1787 52.4113 84.3232 52.5997 84.4452C52.7881 84.5631 53.0058 84.6668 53.2528 84.7562C53.4998 84.8415 53.7635 84.915 54.044 84.976L55.1994 85.2443C55.7603 85.3663 56.2753 85.5286 56.7441 85.7324C57.213 85.9356 57.6191 86.1856 57.9624 86.4823C58.3057 86.7797 58.5715 87.1292 58.7599 87.532C58.9524 87.9342 59.0508 88.3962 59.055 88.9163C59.0508 89.6811 58.8499 90.3439 58.4522 90.9055C58.0586 91.4623 57.4893 91.8953 56.7441 92.2045C56.0032 92.5096 55.1094 92.6624 54.0628 92.6624C53.0246 92.6624 52.1204 92.5078 51.3501 92.1986C50.584 91.8894 49.9853 91.4321 49.5542 90.8261C49.1272 90.216 48.9032 89.4613 48.8823 88.5627H51.5134C51.5427 88.9815 51.6662 89.3316 51.8839 89.6118C52.1057 89.8884 52.4009 90.0981 52.7693 90.2403C53.1419 90.3789 53.5625 90.4476 54.0314 90.4476C54.4919 90.4476 54.8917 90.3824 55.2308 90.2527C55.5741 90.1224 55.8399 89.9411 56.0283 89.7095C56.2167 89.4779 56.3109 89.2113 56.3109 88.9104C56.3109 88.6296 56.225 88.3939 56.0534 88.2025C55.886 88.0118 55.6389 87.8489 55.3124 87.715C54.9901 87.5806 54.5945 87.4585 54.1257 87.349L52.7253 87.0072C51.6411 86.7507 50.785 86.3502 50.157 85.8053C49.5291 85.2603 49.2172 84.5264 49.2214 83.6035C49.2172 82.847 49.4244 82.186 49.843 81.6209C50.2658 81.0552 50.8457 80.6139 51.5824 80.2969C52.3193 79.9794 53.1565 79.8213 54.0943 79.8213C55.0487 79.8213 55.8818 79.9794 56.5935 80.2969C57.3093 80.6139 57.8661 81.0552 58.2638 81.6209C58.6615 82.186 58.8666 82.8405 58.8792 83.5851H56.2732ZM64.9767 92.4853V79.9919H73.642V82.1694H67.6957V85.1466H73.1963V87.3247H67.6957V90.3072H73.667V92.4853H64.9767ZM82.7804 83.5851C82.7298 83.0929 82.5146 82.7108 82.1335 82.4383C81.7524 82.1658 81.2353 82.0296 80.5822 82.0296C80.1389 82.0296 79.7639 82.0906 79.4585 82.2126C79.153 82.3305 78.9182 82.4952 78.7554 82.7067C78.5963 82.9181 78.5164 83.158 78.5164 83.4264C78.5085 83.6497 78.5566 83.8452 78.6609 84.0122C78.77 84.1787 78.9182 84.3232 79.1066 84.4452C79.295 84.5631 79.5127 84.6668 79.7597 84.7562C80.0066 84.8415 80.2707 84.915 80.5511 84.976L81.7066 85.2443C82.2676 85.3663 82.7822 85.5286 83.2511 85.7324C83.72 85.9356 84.1261 86.1856 84.4694 86.4823C84.8127 86.7797 85.0786 87.1292 85.267 87.532C85.4597 87.9342 85.5579 88.3962 85.5621 88.9163C85.5579 89.6811 85.3572 90.3439 84.9591 90.9055C84.5658 91.4623 83.9963 91.8953 83.2511 92.2045C82.5103 92.5096 81.6164 92.6624 80.57 92.6624C79.5316 92.6624 78.6274 92.5078 77.8572 92.1986C77.0914 91.8894 76.4926 91.4321 76.0615 90.8261C75.6341 90.216 75.4103 89.4613 75.3896 88.5627H78.0207C78.0499 88.9815 78.1731 89.3316 78.3908 89.6118C78.6127 89.8884 78.9078 90.0981 79.2761 90.2403C79.6487 90.3789 80.0694 90.4476 80.5383 90.4476C80.9993 90.4476 81.3987 90.3824 81.7377 90.2527C82.081 90.1224 82.3469 89.9411 82.5353 89.7095C82.7237 89.4779 82.8182 89.2113 82.8182 88.9104C82.8182 88.6296 82.7322 88.3939 82.5603 88.2025C82.3932 88.0118 82.1463 87.8489 81.8194 87.715C81.4975 87.5806 81.1018 87.4585 80.6329 87.349L79.2322 87.0072C78.1481 86.7507 77.292 86.3502 76.6639 85.8053C76.0359 85.2603 75.7243 84.5264 75.7286 83.6035C75.7243 82.847 75.9316 82.186 76.3499 81.6209C76.7731 81.0552 77.353 80.6139 78.0896 80.2969C78.8261 79.9794 79.6633 79.8213 80.6011 79.8213C81.556 79.8213 82.3889 79.9794 83.1005 80.2969C83.8164 80.6139 84.3731 81.0552 84.7707 81.6209C85.1688 82.186 85.3737 82.8405 85.3865 83.5851H82.7804ZM98.7377 84.3658H95.9877C95.9371 84.0199 95.8347 83.7131 95.6798 83.4447C95.5249 83.1723 95.3261 82.9401 95.0835 82.7493C94.8408 82.558 94.5603 82.4117 94.242 82.3098C93.928 82.2085 93.5865 82.1575 93.2182 82.1575C92.553 82.1575 91.9731 82.3181 91.4792 82.6391C90.9847 82.9566 90.6018 83.4204 90.3298 84.03C90.0579 84.636 89.9219 85.3723 89.9219 86.2383C89.9219 87.1292 90.0579 87.8773 90.3298 88.4833C90.606 89.0893 90.9914 89.5472 91.4853 89.8558C91.9792 90.165 92.5505 90.3196 93.1993 90.3196C93.5639 90.3196 93.9005 90.2728 94.2103 90.1792C94.5243 90.0857 94.803 89.9494 95.0457 89.7705C95.2883 89.5875 95.4896 89.3659 95.6487 89.1059C95.8115 88.8452 95.9249 88.5485 95.9877 88.215L98.7377 88.2274C98.667 88.8008 98.4889 89.3535 98.2042 89.8866C97.9237 90.415 97.545 90.8889 97.0676 91.3077C96.5944 91.7229 96.0292 92.0523 95.3725 92.2963C94.7188 92.5362 93.9804 92.6559 93.1554 92.6559C92.0085 92.6559 90.9829 92.4041 90.0786 91.8994C89.1786 91.3953 88.467 90.6656 87.9438 89.7095C87.4243 88.754 87.1652 87.5966 87.1652 86.2383C87.1652 84.8759 87.4286 83.7172 87.956 82.7612C88.4835 81.8057 89.1993 81.0777 90.1036 80.5777C91.0079 80.073 92.0255 79.8213 93.1554 79.8213C93.9005 79.8213 94.5914 79.9226 95.228 80.1264C95.8682 80.3295 96.4353 80.6263 96.9292 81.0167C97.4237 81.4029 97.8255 81.8768 98.1353 82.4383C98.4493 82.9993 98.6499 83.642 98.7377 84.3658Z" fill="white"/>
<path d="M14.0244 58.1543C14.0244 44.1711 14.0244 30.3187 14.0244 16.2701C17.1949 14.7673 20.3655 13.2644 23.7301 11.6962C32.0122 15.5514 40.3591 19.4719 48.8353 23.3924C50.5176 22.543 52.2 21.6935 54.5294 20.5827C46.1178 16.7276 38.3533 13.1337 30.2005 9.40923C36.865 6.14215 43.0767 3.07107 49.4177 0C61.5823 5.35804 73.7464 10.7161 85.9756 16.0741C85.9756 20.3213 85.9756 24.3725 85.9756 28.7504C77.6287 32.6056 69.2171 36.5261 60.6762 40.4466C60.6762 47.1115 60.6762 53.6457 60.6762 60.7029C69.2171 57.6316 77.3055 53.8418 85.911 50.5746C85.911 53.2537 85.911 55.6713 85.911 58.481C75.364 63.3164 64.5586 68.2821 53.494 73.3788C53.3 60.3108 53.0411 47.6342 52.847 34.6966C61.5171 30.7761 70.1878 26.8556 78.9226 22.935C78.9226 21.6935 78.9226 20.6481 78.9226 19.4066C69.2817 15.1594 59.7057 10.8468 50.0647 6.59956C48.5765 7.25293 47.1531 7.90636 45.0178 8.88653C53.6882 12.8724 61.7762 16.5968 70.3817 20.5827C63.5232 23.8498 57.1175 26.9209 50.5823 29.992C41.7179 26.3328 32.9181 22.6736 23.9889 18.9491C23.2125 19.2105 22.3065 19.5372 21.2713 19.9293C21.2713 21.0401 21.2713 22.0202 21.2713 23.1964C29.5534 27.1169 37.9003 31.1028 46.3119 35.0886C46.3119 37.5716 46.3119 39.9893 46.3119 42.7336C37.8356 39.2052 29.6829 35.8074 21.2066 32.2789C21.2066 34.1085 21.2066 35.546 21.2066 37.3756C29.4887 41.0347 37.8356 44.8246 46.3119 48.6144C46.3119 51.4241 46.3119 54.1031 46.3119 57.2395C37.7062 54.1685 29.7476 50.1173 21.1419 46.8501C21.1419 49.0718 21.1419 51.0321 21.1419 53.2537C29.6181 57.1088 38.1591 61.0293 46.7648 65.0153C46.7648 67.6945 46.7648 70.2428 46.7648 73.3136C35.7004 68.1518 24.8947 63.1855 14.0244 58.1543Z" fill="white"/>
</svg>
