<svg width="579" height="960" viewBox="0 0 579 960" fill="none" xmlns="http://www.w3.org/2000/svg">
<path d="M14.03 29.2441C18.0095 29.2441 20.7195 26.6929 20.7195 23.1162C20.7195 19.7227 18.3025 17.2935 15.0554 17.3057C13.5051 17.2935 12.1624 17.9282 11.5154 18.7949H11.3689L11.8572 14.3271H19.7185V11.3242H8.82984L7.87769 21.5049H11.198C11.7229 20.5161 12.6506 20.0156 13.9812 20.0156C15.8367 20.0278 17.1672 21.334 17.155 23.2139C17.1672 25.0571 15.8611 26.3511 14.03 26.3389C12.4919 26.3511 11.2346 25.3989 11.1492 24.0195H7.58472C7.64575 27.0713 10.3435 29.2441 14.03 29.2441ZM25.6511 29.2197C26.7376 29.2197 27.6775 28.3042 27.6775 27.1689C27.6775 26.0459 26.7376 25.1304 25.6511 25.1426C24.5037 25.1304 23.5759 26.0459 23.6003 27.1689C23.5759 28.3042 24.5037 29.2197 25.6511 29.2197ZM46.3379 14.0586V10.7383H43.2129V14.0586C43.2129 18.1846 41.4429 22.4326 37.6709 24.166L39.5996 26.6807C42.1143 25.4355 43.8232 23.0796 44.7998 20.2109C45.7153 22.8843 47.3267 25.0815 49.707 26.2656L51.5869 23.7754C48.0225 22.0542 46.3257 18.0381 46.3379 14.0586ZM52.5635 31.2461H55.6885V20.2354H58.96V17.5986H55.6885V9.0293H52.5635V31.2461ZM80.0293 19.5518H75.3662V16.915C77.0264 16.207 77.9663 15.0962 77.9785 13.6436C77.9663 10.958 74.8047 9.35889 69.8975 9.34668C64.9536 9.35889 61.792 10.958 61.792 13.6436C61.792 15.0718 62.7075 16.1704 64.3311 16.8906V19.5518H59.7656V22.042H80.0293V19.5518ZM62.085 27.1934C62.085 29.8179 65.0024 31.2217 69.873 31.2217C74.6704 31.2217 77.5879 29.8179 77.6123 27.1934C77.5879 24.6299 74.6704 23.2017 69.873 23.2139C65.0024 23.2017 62.085 24.6299 62.085 27.1934ZM65.0391 13.6436C65.0146 12.3984 66.7603 11.7393 69.8975 11.7393C72.998 11.7393 74.7559 12.3984 74.7559 13.6436C74.7559 14.8643 72.998 15.4868 69.8975 15.4746C66.7603 15.4868 65.0146 14.8643 65.0391 13.6436ZM65.2588 27.1934C65.2466 26.0947 66.7969 25.5698 69.873 25.5576C72.8882 25.5698 74.4751 26.0947 74.4873 27.1934C74.4751 28.3286 72.8882 28.9023 69.873 28.9023C66.7969 28.9023 65.2466 28.3286 65.2588 27.1934ZM67.4805 19.5518V17.6841C68.2251 17.7695 69.0308 17.8184 69.8975 17.8184C70.7397 17.8184 71.5332 17.7817 72.2656 17.6841V19.5518H67.4805ZM105.859 9.05371H102.759V14.8887H99.0845C98.5474 12.2031 96.2036 10.3843 93.335 10.3965C89.9658 10.3843 87.4023 12.728 87.4268 16.0361C87.4023 19.3198 89.9658 21.7124 93.335 21.7246C96.1182 21.7124 98.4131 19.9668 99.0356 17.4033H102.759V25.2891H105.859V9.05371ZM90.3809 16.0361C90.3687 14.1807 91.6504 13.1064 93.335 13.1064C94.9707 13.1064 96.228 14.1807 96.2402 16.0361C96.228 17.8794 94.9707 19.0146 93.335 19.0146C91.6504 19.0146 90.3687 17.8794 90.3809 16.0361ZM91.1133 30.8555H106.396V28.3652H94.2383V23.6533H91.1133V30.8555ZM114.868 10.5918C111.499 10.5918 109.082 13.6558 109.106 18.502C109.082 23.3848 111.499 26.4365 114.868 26.4365C117.969 26.4365 120.264 23.8242 120.593 19.5518H124.414V31.2949H127.49V9.0293H124.414V17.0615H120.557C120.117 13.0576 117.871 10.5918 114.868 10.5918ZM112.085 18.502C112.073 15.2061 113.208 13.3994 114.868 13.3994C116.541 13.3994 117.651 15.2061 117.651 18.502C117.651 21.8101 116.541 23.6167 114.868 23.6045C113.208 23.6167 112.073 21.8101 112.085 18.502ZM135.034 27.1934H131.567L130.347 34.1514H132.935L135.034 27.1934ZM160.01 9.0293H156.934V31.2949H160.01V19.9912H163.281V17.4277H160.01V9.0293ZM143.384 13.3994H150.562V17.0371H143.408V26.1191H145.288C149.194 26.1191 152.246 25.9849 155.64 25.3623L155.371 22.8721C152.417 23.3726 149.744 23.519 146.509 23.5312V19.5029H153.662V10.8848H143.384V13.3994ZM182.69 9.0293H179.541V31.2949H182.69V9.0293ZM164.746 18.502C164.734 23.3848 167.212 26.4365 170.63 26.4365C173.975 26.4365 176.465 23.3848 176.465 18.502C176.465 13.6558 173.975 10.5918 170.63 10.5918C167.212 10.5918 164.734 13.6558 164.746 18.502ZM167.749 18.502C167.737 15.2061 168.896 13.3994 170.63 13.3994C172.314 13.3994 173.45 15.2061 173.462 18.502C173.45 21.8101 172.314 23.6167 170.63 23.6045C168.896 23.6167 167.737 21.8101 167.749 18.502ZM206.03 26.0215H185.693V28.5605H206.03V26.0215ZM187.842 22.3105H203.76V10.4453H200.659V14.1318H190.967V10.4453H187.842V22.3105ZM190.967 19.8691V16.5488H200.659V19.8691H190.967ZM226.025 9.0293H222.925V17.0371H219.336V19.5762H222.925V31.2949H226.025V9.0293ZM208.032 13.3994H215.063V16.7441H208.081V26.1191H209.912C213.635 26.1313 216.65 26.0093 219.946 25.46L219.702 22.9209C216.833 23.4214 214.246 23.5312 211.182 23.5557V19.21H218.091V10.8848H208.032V13.3994ZM247.534 9.0293H244.434V31.2949H247.534V9.0293ZM230.078 13.3994H237.476V16.9883H230.103V26.0947H232.104C236.157 26.0947 239.465 25.9604 243.115 25.3135L242.847 22.7988C239.587 23.3359 236.719 23.5068 233.325 23.5312V19.4541H240.649V10.8848H230.078V13.3994ZM255.2 27.1934H251.733L250.513 34.1514H253.101L255.2 27.1934ZM280.737 15.6699H268.262V14.5957H280.029V12.5449H268.262V11.5195H280.542V9.37109H265.137V17.7939H280.737V15.6699ZM262.695 21.1143H271.191V22.3594H264.99V24.5322H277.368V25.6064H265.015V31.0996H281.03V28.8779H268.066V27.7061H280.444V22.3594H274.316V21.1143H282.861V18.8438H262.695V21.1143ZM18.7256 65.2402C20.5322 65.2402 21.9971 63.7754 21.9971 61.9443C21.9971 60.1377 20.5322 58.6729 18.7256 58.6729C16.8945 58.6729 15.4297 60.1377 15.4297 61.9443C15.4297 63.7754 16.8945 65.2402 18.7256 65.2402ZM41.2842 61.041C41.2842 58.7461 42.749 57.4521 44.7266 57.4521C46.6309 57.4521 47.7783 58.6362 47.7783 60.7236V69H49.8779V60.5771C49.8779 57.1714 48.0713 55.5723 45.3613 55.5723C43.2617 55.5723 42.0776 56.4512 41.4551 57.8184H41.2842V51.3242H39.1846V69H41.2842V61.041ZM59.0332 55.7432H56.25V52.5693H54.126V55.7432H52.124V57.501H54.126V65.7285C54.1382 68.0723 55.9937 69.1709 57.7637 69.1709C58.3862 69.1709 58.8989 69.1221 59.2285 69.0732V67.1201C58.9233 67.1323 58.3618 67.1689 57.9834 67.1689C57.0923 67.1689 56.2378 66.8882 56.25 65.1914V57.501H59.0332V55.7432ZM61.7432 69H63.8428V60.7236C63.8428 58.7949 65.2344 57.4521 66.8213 57.4521C68.3472 57.4521 69.4214 58.4531 69.4092 59.9424V69H71.5332V60.3818C71.5454 58.6973 72.5952 57.4521 74.4385 57.4521C75.8911 57.4521 77.1118 58.209 77.124 60.1621V69H79.2236V60.1377C79.2236 57.0127 77.5269 55.5723 75.1709 55.5723C73.2666 55.5723 71.8628 56.4512 71.1914 57.8184H71.0449C70.4224 56.4023 69.2383 55.5723 67.5049 55.5723C65.7715 55.5723 64.4897 56.4023 63.9404 57.8184H63.7695V55.7432H61.7432V69ZM84.6924 51.3242H82.5928V69H84.6924V51.3242ZM90.7959 67.3643H88.4277L87.085 74.0049H88.8916L90.7959 67.3643ZM106.128 69.2686C109.07 69.2808 111.023 67.4619 111.353 65.0938H109.253C108.887 66.5464 107.69 67.3887 106.128 67.3887C103.723 67.3887 102.185 65.4233 102.173 62.3594C102.185 59.3809 103.76 57.4277 106.128 57.4277C107.898 57.4277 108.948 58.5386 109.253 59.7471H111.353C111.023 57.2446 108.899 55.5723 106.079 55.5723C102.478 55.5723 100.073 58.4043 100.073 62.4326C100.073 66.4121 102.368 69.2808 106.128 69.2686ZM121.313 59.1855H123.364C123.096 57.0371 121.375 55.5723 118.628 55.5723C115.71 55.5723 113.721 57.208 113.721 59.4785C113.721 61.2485 114.954 62.5059 117.261 63.043L119.263 63.5068C120.764 63.8608 121.436 64.4712 121.436 65.4111C121.436 66.6562 120.251 67.4497 118.359 67.4375C116.687 67.4497 115.747 66.8271 115.503 65.5332H113.306C113.66 67.9502 115.43 69.2808 118.408 69.2686C121.729 69.2808 123.596 67.584 123.608 65.2891C123.596 63.4458 122.437 62.2617 120.068 61.7002L118.091 61.2119C116.541 60.8335 115.833 60.2354 115.82 59.3564C115.833 58.2456 116.992 57.3667 118.628 57.3545C120.178 57.3667 121.021 58.0869 121.313 59.1855ZM133.716 59.1855H135.767C135.498 57.0371 133.777 55.5723 131.03 55.5723C128.113 55.5723 126.123 57.208 126.123 59.4785C126.123 61.2485 127.356 62.5059 129.663 63.043L131.665 63.5068C133.167 63.8608 133.838 64.4712 133.838 65.4111C133.838 66.6562 132.654 67.4497 130.762 67.4375C129.089 67.4497 128.149 66.8271 127.905 65.5332H125.708C126.062 67.9502 127.832 69.2808 130.811 69.2686C134.131 69.2808 135.999 67.584 136.011 65.2891C135.999 63.4458 134.839 62.2617 132.471 61.7002L130.493 61.2119C128.943 60.8335 128.235 60.2354 128.223 59.3564C128.235 58.2456 129.395 57.3667 131.03 57.3545C132.581 57.3667 133.423 58.0869 133.716 59.1855ZM141.504 67.3643H139.136L137.793 74.0049H139.6L141.504 67.3643ZM151.416 55.7432V69.9521C151.404 71.2827 150.854 72.0396 149.634 72.0273C149.487 72.0396 149.365 72.0396 149.219 72.0273V73.9805C149.39 73.9683 149.524 73.9683 149.658 73.9805C152.234 73.9683 153.516 72.4302 153.516 69.9521V55.7432H151.416ZM150.977 52.1543C150.964 52.9233 151.636 53.5459 152.441 53.5459C153.247 53.5459 153.918 52.9233 153.931 52.1543C153.918 51.373 153.247 50.7505 152.441 50.7627C151.636 50.7505 150.964 51.373 150.977 52.1543ZM164.233 59.1855H166.284C166.016 57.0371 164.294 55.5723 161.548 55.5723C158.63 55.5723 156.641 57.208 156.641 59.4785C156.641 61.2485 157.874 62.5059 160.181 63.043L162.183 63.5068C163.684 63.8608 164.355 64.4712 164.355 65.4111C164.355 66.6562 163.171 67.4497 161.279 67.4375C159.607 67.4497 158.667 66.8271 158.423 65.5332H156.226C156.58 67.9502 158.35 69.2808 161.328 69.2686C164.648 69.2808 166.516 67.584 166.528 65.2891C166.516 63.4458 165.356 62.2617 162.988 61.7002L161.011 61.2119C159.46 60.8335 158.752 60.2354 158.74 59.3564C158.752 58.2456 159.912 57.3667 161.548 57.3545C163.098 57.3667 163.94 58.0869 164.233 59.1855ZM172.021 67.3643H169.653L168.311 74.0049H170.117L172.021 67.3643ZM181.934 55.7432V69.9521C181.921 71.2827 181.372 72.0396 180.151 72.0273C180.005 72.0396 179.883 72.0396 179.736 72.0273V73.9805C179.907 73.9683 180.042 73.9683 180.176 73.9805C182.751 73.9683 184.033 72.4302 184.033 69.9521V55.7432H181.934ZM181.494 52.1543C181.482 52.9233 182.153 53.5459 182.959 53.5459C183.765 53.5459 184.436 52.9233 184.448 52.1543C184.436 51.373 183.765 50.7505 182.959 50.7627C182.153 50.7505 181.482 51.373 181.494 52.1543ZM196.387 73.9805H198.511V55.7432H196.46V57.8428H196.24C195.789 57.1348 194.983 55.5723 192.407 55.5723C189.075 55.5723 186.743 58.209 186.743 62.4082C186.743 66.6196 189.075 69.2808 192.383 69.2686C194.91 69.2808 195.776 67.7061 196.24 66.9736H196.387V73.9805ZM188.867 62.3594C188.867 59.5884 190.125 57.4521 192.676 57.4521C195.142 57.4521 196.448 59.4175 196.46 62.3594C196.448 65.3379 195.105 67.3887 192.676 67.3887C190.161 67.3887 188.867 65.1792 188.867 62.3594ZM210.229 63.5557C210.217 66.0337 208.337 67.1567 206.836 67.1445C205.139 67.1567 203.955 65.9238 203.955 64.0195V55.7432H201.855V64.166C201.843 67.5352 203.638 69.1709 206.152 69.1709C208.142 69.1709 209.46 68.0967 210.083 66.7539H210.229V69H212.305V55.7432H210.229V63.5557ZM221.24 69.2686C223.975 69.2808 225.94 67.9136 226.562 65.8994H224.316C223.828 66.7173 222.827 67.4131 221.24 67.4131C218.884 67.4131 217.249 65.875 217.139 63.0674H226.758V62.1885C226.77 57.2812 223.828 55.5723 221.045 55.5723C217.444 55.5723 215.039 58.4043 215.039 62.4814C215.039 66.5464 217.407 69.2808 221.24 69.2686ZM217.151 61.2852C217.297 59.2344 218.75 57.4277 221.045 57.4277C223.23 57.4277 224.622 59.0757 224.634 61.2852H217.151ZM229.492 69H231.592V60.6504C231.592 58.8682 233.008 57.5498 234.912 57.5498C235.461 57.5498 236.023 57.6597 236.182 57.6963V55.5723C235.938 55.5479 235.4 55.5356 235.083 55.5234C233.521 55.5356 232.141 56.4268 231.665 57.7695H231.519V55.7432H229.492V69ZM239.99 73.9805C241.87 73.9683 243.164 72.9917 243.945 70.9043L249.561 55.7432H247.266L243.652 66.2656H243.506L239.893 55.7432H237.598L242.505 69.0977L242.114 70.0986C241.418 72.0396 240.698 72.0884 239.844 72.1006C239.514 72.0884 239.038 72.0762 238.818 72.0518V73.9316C239.087 73.9561 239.539 73.9683 239.99 73.9805ZM253.809 67.3643H251.44L250.098 74.0049H251.904L253.809 67.3643ZM263.086 65.2402C263.086 67.8281 265.088 69.3052 267.603 69.3174C269.91 69.3052 271.118 68.0845 271.558 67.1934H271.655V69H273.73V60.2598C273.743 56.085 270.483 55.5723 268.75 55.5723C265.82 55.5723 263.745 57.0493 263.477 59.1855H265.674C265.967 58.1724 266.98 57.4033 268.652 57.4033C270.654 57.4033 271.655 58.3799 271.655 60.0645V61.1387C271.057 61.1509 268.921 61.2729 268.066 61.334C265.771 61.5049 263.086 62.2007 263.086 65.2402ZM265.186 65.3379C265.198 63.8853 266.406 63.2139 268.311 63.0918C268.945 63.0552 271.033 62.8965 271.655 62.8599V64.1904C271.655 65.8628 270.337 67.4497 267.969 67.4375C266.357 67.4497 265.198 66.7417 265.186 65.3379ZM277.1 55.7432V69.9521C277.087 71.2827 276.538 72.0396 275.317 72.0273C275.171 72.0396 275.049 72.0396 274.902 72.0273V73.9805C275.073 73.9683 275.208 73.9683 275.342 73.9805C277.917 73.9683 279.199 72.4302 279.199 69.9521V55.7432H277.1ZM276.66 52.1543C276.648 52.9233 277.319 53.5459 278.125 53.5459C278.931 53.5459 279.602 52.9233 279.614 52.1543C279.602 51.373 278.931 50.7505 278.125 50.7627C277.319 50.7505 276.648 51.373 276.66 52.1543ZM281.909 65.2402C281.909 67.8281 283.911 69.3052 286.426 69.3174C288.733 69.3052 289.941 68.0845 290.381 67.1934H290.479V69H292.554V60.2598C292.566 56.085 289.307 55.5723 287.573 55.5723C284.644 55.5723 282.568 57.0493 282.3 59.1855H284.497C284.79 58.1724 285.803 57.4033 287.476 57.4033C289.478 57.4033 290.479 58.3799 290.479 60.0645V61.1387C289.88 61.1509 287.744 61.2729 286.89 61.334C284.595 61.5049 281.909 62.2007 281.909 65.2402ZM284.009 65.3379C284.021 63.8853 285.229 63.2139 287.134 63.0918C287.769 63.0552 289.856 62.8965 290.479 62.8599V64.1904C290.479 65.8628 289.16 67.4497 286.792 67.4375C285.181 67.4497 284.021 66.7417 284.009 65.3379ZM297.51 55.7432H295.093L299.268 62.3594L295.093 69H297.51L300.635 63.873L303.809 69H306.201L301.929 62.3594L306.201 55.7432H303.784L300.635 61.1387L297.51 55.7432ZM311.499 67.3643H309.131L307.788 74.0049H309.595L311.499 67.3643ZM321.411 73.9805H323.511V66.9736H323.682C324.133 67.7061 325.012 69.2808 327.539 69.2686C330.847 69.2808 333.154 66.6196 333.154 62.4082C333.154 58.209 330.847 55.5723 327.515 55.5723C324.939 55.5723 324.133 57.1348 323.682 57.8428H323.438V55.7432H321.411V73.9805ZM323.462 62.3594C323.474 59.4175 324.768 57.4521 327.246 57.4521C329.797 57.4521 331.055 59.5884 331.055 62.3594C331.055 65.1792 329.761 67.3887 327.246 67.3887C324.805 67.3887 323.474 65.3379 323.462 62.3594ZM337.988 61.041C337.988 58.7461 339.453 57.4521 341.431 57.4521C343.335 57.4521 344.482 58.6362 344.482 60.7236V69H346.582V60.5771C346.582 57.1714 344.775 55.5723 342.065 55.5723C339.966 55.5723 338.782 56.4512 338.159 57.8184H337.988V51.3242H335.889V69H337.988V61.041ZM349.951 73.9805H352.051V66.9736H352.222C352.673 67.7061 353.552 69.2808 356.079 69.2686C359.387 69.2808 361.694 66.6196 361.694 62.4082C361.694 58.209 359.387 55.5723 356.055 55.5723C353.479 55.5723 352.673 57.1348 352.222 57.8428H351.978V55.7432H349.951V73.9805ZM352.002 62.3594C352.014 59.4175 353.308 57.4521 355.786 57.4521C358.337 57.4521 359.595 59.5884 359.595 62.3594C359.595 65.1792 358.301 67.3887 355.786 67.3887C353.345 67.3887 352.014 65.3379 352.002 62.3594ZM18.7256 105.24C20.5322 105.24 21.9971 103.775 21.9971 101.944C21.9971 100.138 20.5322 98.6729 18.7256 98.6729C16.8945 98.6729 15.4297 100.138 15.4297 101.944C15.4297 103.775 16.8945 105.24 18.7256 105.24ZM39.4531 109H41.4795V106.974H41.7236C42.1753 107.706 43.042 109.281 45.5811 109.269C48.877 109.281 51.2085 106.62 51.2207 102.408C51.2085 98.209 48.877 95.5723 45.5566 95.5723C42.9688 95.5723 42.1753 97.1348 41.7236 97.8428H41.5527V91.3242H39.4531V109ZM41.5039 102.359C41.5039 99.4175 42.8223 97.4521 45.2637 97.4521C47.8271 97.4521 49.0845 99.5884 49.0967 102.359C49.0845 105.179 47.7905 107.389 45.2637 107.389C42.8467 107.389 41.5039 105.338 41.5039 102.359ZM59.375 109.269C62.9761 109.281 65.3931 106.546 65.3809 102.433C65.3931 98.2944 62.9761 95.5723 59.375 95.5723C55.7617 95.5723 53.3203 98.2944 53.3203 102.433C53.3203 106.546 55.7617 109.281 59.375 109.269ZM55.4199 102.433C55.4321 99.7959 56.6772 97.4277 59.375 97.4277C62.0483 97.4277 63.2812 99.7959 63.2812 102.433C63.2812 105.082 62.0483 107.413 59.375 107.413C56.6772 107.413 55.4321 105.082 55.4199 102.433ZM73.5596 109.269C77.1606 109.281 79.5776 106.546 79.5654 102.433C79.5776 98.2944 77.1606 95.5723 73.5596 95.5723C69.9463 95.5723 67.5049 98.2944 67.5049 102.433C67.5049 106.546 69.9463 109.281 73.5596 109.269ZM69.6045 102.433C69.6167 99.7959 70.8618 97.4277 73.5596 97.4277C76.2329 97.4277 77.4658 99.7959 77.4658 102.433C77.4658 105.082 76.2329 107.413 73.5596 107.413C70.8618 107.413 69.6167 105.082 69.6045 102.433ZM88.1104 95.7432H85.3271V92.5693H83.2031V95.7432H81.2012V97.501H83.2031V105.729C83.2153 108.072 85.0708 109.171 86.8408 109.171C87.4634 109.171 87.9761 109.122 88.3057 109.073V107.12C88.0005 107.132 87.439 107.169 87.0605 107.169C86.1694 107.169 85.3149 106.888 85.3271 105.191V97.501H88.1104V95.7432ZM97.9492 99.1855H100C99.7314 97.0371 98.0103 95.5723 95.2637 95.5723C92.3462 95.5723 90.3564 97.208 90.3564 99.4785C90.3564 101.249 91.5894 102.506 93.8965 103.043L95.8984 103.507C97.3999 103.861 98.0713 104.471 98.0713 105.411C98.0713 106.656 96.8872 107.45 94.9951 107.438C93.3228 107.45 92.3828 106.827 92.1387 105.533H89.9414C90.2954 107.95 92.0654 109.281 95.0439 109.269C98.3643 109.281 100.232 107.584 100.244 105.289C100.232 103.446 99.0723 102.262 96.7041 101.7L94.7266 101.212C93.1763 100.833 92.4683 100.235 92.4561 99.3564C92.4683 98.2456 93.6279 97.3667 95.2637 97.3545C96.814 97.3667 97.6562 98.0869 97.9492 99.1855ZM108.765 95.7432H105.981V92.5693H103.857V95.7432H101.855V97.501H103.857V105.729C103.87 108.072 105.725 109.171 107.495 109.171C108.118 109.171 108.63 109.122 108.96 109.073V107.12C108.655 107.132 108.093 107.169 107.715 107.169C106.824 107.169 105.969 106.888 105.981 105.191V97.501H108.765V95.7432ZM111.475 109H113.574V100.65C113.574 98.8682 114.99 97.5498 116.895 97.5498C117.444 97.5498 118.005 97.6597 118.164 97.6963V95.5723C117.92 95.5479 117.383 95.5356 117.065 95.5234C115.503 95.5356 114.124 96.4268 113.647 97.7695H113.501V95.7432H111.475V109ZM119.556 105.24C119.556 107.828 121.558 109.305 124.072 109.317C126.379 109.305 127.588 108.084 128.027 107.193H128.125V109H130.2V100.26C130.212 96.085 126.953 95.5723 125.22 95.5723C122.29 95.5723 120.215 97.0493 119.946 99.1855H122.144C122.437 98.1724 123.45 97.4033 125.122 97.4033C127.124 97.4033 128.125 98.3799 128.125 100.064V101.139C127.527 101.151 125.391 101.273 124.536 101.334C122.241 101.505 119.556 102.201 119.556 105.24ZM121.655 105.338C121.667 103.885 122.876 103.214 124.78 103.092C125.415 103.055 127.502 102.896 128.125 102.86V104.19C128.125 105.863 126.807 107.45 124.438 107.438C122.827 107.45 121.667 106.742 121.655 105.338ZM133.569 113.98H135.669V106.974H135.84C136.292 107.706 137.17 109.281 139.697 109.269C143.005 109.281 145.312 106.62 145.312 102.408C145.312 98.209 143.005 95.5723 139.673 95.5723C137.097 95.5723 136.292 97.1348 135.84 97.8428H135.596V95.7432H133.569V113.98ZM135.62 102.359C135.632 99.4175 136.926 97.4521 139.404 97.4521C141.956 97.4521 143.213 99.5884 143.213 102.359C143.213 105.179 141.919 107.389 139.404 107.389C136.963 107.389 135.632 105.338 135.62 102.359ZM150.806 107.364H148.438L147.095 114.005H148.901L150.806 107.364ZM160.718 109H162.817V95.7432H160.718V109ZM160.303 92.1543C160.291 92.9233 160.962 93.5459 161.768 93.5459C162.573 93.5459 163.245 92.9233 163.257 92.1543C163.245 91.373 162.573 90.7505 161.768 90.7627C160.962 90.7505 160.291 91.373 160.303 92.1543ZM173.535 99.1855H175.586C175.317 97.0371 173.596 95.5723 170.85 95.5723C167.932 95.5723 165.942 97.208 165.942 99.4785C165.942 101.249 167.175 102.506 169.482 103.043L171.484 103.507C172.986 103.861 173.657 104.471 173.657 105.411C173.657 106.656 172.473 107.45 170.581 107.438C168.909 107.45 167.969 106.827 167.725 105.533H165.527C165.881 107.95 167.651 109.281 170.63 109.269C173.95 109.281 175.818 107.584 175.83 105.289C175.818 103.446 174.658 102.262 172.29 101.7L170.312 101.212C168.762 100.833 168.054 100.235 168.042 99.3564C168.054 98.2456 169.214 97.3667 170.85 97.3545C172.4 97.3667 173.242 98.0869 173.535 99.1855ZM183.984 109.269C187.585 109.281 190.002 106.546 189.99 102.433C190.002 98.2944 187.585 95.5723 183.984 95.5723C180.371 95.5723 177.93 98.2944 177.93 102.433C177.93 106.546 180.371 109.281 183.984 109.269ZM180.029 102.433C180.042 99.7959 181.287 97.4277 183.984 97.4277C186.658 97.4277 187.891 99.7959 187.891 102.433C187.891 105.082 186.658 107.413 183.984 107.413C181.287 107.413 180.042 105.082 180.029 102.433ZM198.535 95.7432H195.752V92.5693H193.628V95.7432H191.626V97.501H193.628V105.729C193.64 108.072 195.496 109.171 197.266 109.171C197.888 109.171 198.401 109.122 198.73 109.073V107.12C198.425 107.132 197.864 107.169 197.485 107.169C196.594 107.169 195.74 106.888 195.752 105.191V97.501H198.535V95.7432ZM206.519 109.269C210.12 109.281 212.537 106.546 212.524 102.433C212.537 98.2944 210.12 95.5723 206.519 95.5723C202.905 95.5723 200.464 98.2944 200.464 102.433C200.464 106.546 202.905 109.281 206.519 109.269ZM202.563 102.433C202.576 99.7959 203.821 97.4277 206.519 97.4277C209.192 97.4277 210.425 99.7959 210.425 102.433C210.425 105.082 209.192 107.413 206.519 107.413C203.821 107.413 202.576 105.082 202.563 102.433ZM215.283 113.98H217.383V106.974H217.554C218.005 107.706 218.884 109.281 221.411 109.269C224.719 109.281 227.026 106.62 227.026 102.408C227.026 98.209 224.719 95.5723 221.387 95.5723C218.811 95.5723 218.005 97.1348 217.554 97.8428H217.31V95.7432H215.283V113.98ZM217.334 102.359C217.346 99.4175 218.64 97.4521 221.118 97.4521C223.669 97.4521 224.927 99.5884 224.927 102.359C224.927 105.179 223.633 107.389 221.118 107.389C218.677 107.389 217.346 105.338 217.334 102.359ZM235.327 109.269C238.062 109.281 240.027 107.914 240.649 105.899H238.403C237.915 106.717 236.914 107.413 235.327 107.413C232.971 107.413 231.335 105.875 231.226 103.067H240.845V102.188C240.857 97.2812 237.915 95.5723 235.132 95.5723C231.531 95.5723 229.126 98.4043 229.126 102.481C229.126 106.546 231.494 109.281 235.327 109.269ZM231.238 101.285C231.384 99.2344 232.837 97.4277 235.132 97.4277C237.317 97.4277 238.708 99.0757 238.721 101.285H231.238ZM246.338 107.364H243.97L242.627 114.005H244.434L246.338 107.364ZM263.623 99.1855H265.674C265.405 97.0371 263.684 95.5723 260.938 95.5723C258.02 95.5723 256.03 97.208 256.03 99.4785C256.03 101.249 257.263 102.506 259.57 103.043L261.572 103.507C263.074 103.861 263.745 104.471 263.745 105.411C263.745 106.656 262.561 107.45 260.669 107.438C258.997 107.45 258.057 106.827 257.812 105.533H255.615C255.969 107.95 257.739 109.281 260.718 109.269C264.038 109.281 265.906 107.584 265.918 105.289C265.906 103.446 264.746 102.262 262.378 101.7L260.4 101.212C258.85 100.833 258.142 100.235 258.13 99.3564C258.142 98.2456 259.302 97.3667 260.938 97.3545C262.488 97.3667 263.33 98.0869 263.623 99.1855ZM277.026 103.556C277.014 106.034 275.134 107.157 273.633 107.145C271.936 107.157 270.752 105.924 270.752 104.02V95.7432H268.652V104.166C268.64 107.535 270.435 109.171 272.949 109.171C274.939 109.171 276.257 108.097 276.88 106.754H277.026V109H279.102V95.7432H277.026V103.556ZM282.471 109H284.57V100.724C284.57 98.7949 285.962 97.4521 287.549 97.4521C289.075 97.4521 290.149 98.4531 290.137 99.9424V109H292.261V100.382C292.273 98.6973 293.323 97.4521 295.166 97.4521C296.619 97.4521 297.839 98.209 297.852 100.162V109H299.951V100.138C299.951 97.0127 298.254 95.5723 295.898 95.5723C293.994 95.5723 292.59 96.4512 291.919 97.8184H291.772C291.15 96.4023 289.966 95.5723 288.232 95.5723C286.499 95.5723 285.217 96.4023 284.668 97.8184H284.497V95.7432H282.471V109ZM303.32 109H305.42V100.724C305.42 98.7949 306.812 97.4521 308.398 97.4521C309.924 97.4521 310.999 98.4531 310.986 99.9424V109H313.11V100.382C313.123 98.6973 314.172 97.4521 316.016 97.4521C317.468 97.4521 318.689 98.209 318.701 100.162V109H320.801V100.138C320.801 97.0127 319.104 95.5723 316.748 95.5723C314.844 95.5723 313.44 96.4512 312.769 97.8184H312.622C312 96.4023 310.815 95.5723 309.082 95.5723C307.349 95.5723 306.067 96.4023 305.518 97.8184H305.347V95.7432H303.32V109ZM329.736 109.269C332.471 109.281 334.436 107.914 335.059 105.899H332.812C332.324 106.717 331.323 107.413 329.736 107.413C327.38 107.413 325.745 105.875 325.635 103.067H335.254V102.188C335.266 97.2812 332.324 95.5723 329.541 95.5723C325.94 95.5723 323.535 98.4043 323.535 102.481C323.535 106.546 325.903 109.281 329.736 109.269ZM325.647 101.285C325.793 99.2344 327.246 97.4277 329.541 97.4277C331.726 97.4277 333.118 99.0757 333.13 101.285H325.647ZM337.988 109H340.088V100.65C340.088 98.8682 341.504 97.5498 343.408 97.5498C343.958 97.5498 344.519 97.6597 344.678 97.6963V95.5723C344.434 95.5479 343.896 95.5356 343.579 95.5234C342.017 95.5356 340.637 96.4268 340.161 97.7695H340.015V95.7432H337.988V109ZM348.828 101.041C348.828 98.7461 350.244 97.4521 352.173 97.4521C354.053 97.4521 355.176 98.6729 355.176 100.724V109H357.275V100.577C357.288 97.208 355.493 95.5723 352.808 95.5723C350.793 95.5723 349.548 96.4634 348.926 97.8184H348.755V95.7432H346.729V109H348.828V101.041ZM366.064 109.269C369.666 109.281 372.083 106.546 372.07 102.433C372.083 98.2944 369.666 95.5723 366.064 95.5723C362.451 95.5723 360.01 98.2944 360.01 102.433C360.01 106.546 362.451 109.281 366.064 109.269ZM362.109 102.433C362.122 99.7959 363.367 97.4277 366.064 97.4277C368.738 97.4277 369.971 99.7959 369.971 102.433C369.971 105.082 368.738 107.413 366.064 107.413C363.367 107.413 362.122 105.082 362.109 102.433ZM380.615 95.7432H377.832V92.5693H375.708V95.7432H373.706V97.501H375.708V105.729C375.72 108.072 377.576 109.171 379.346 109.171C379.968 109.171 380.481 109.122 380.811 109.073V107.12C380.505 107.132 379.944 107.169 379.565 107.169C378.674 107.169 377.82 106.888 377.832 105.191V97.501H380.615V95.7432ZM388.745 109.269C391.479 109.281 393.445 107.914 394.067 105.899H391.821C391.333 106.717 390.332 107.413 388.745 107.413C386.389 107.413 384.753 105.875 384.644 103.067H394.263V102.188C394.275 97.2812 391.333 95.5723 388.55 95.5723C384.949 95.5723 382.544 98.4043 382.544 102.481C382.544 106.546 384.912 109.281 388.745 109.269ZM384.656 101.285C384.802 99.2344 386.255 97.4277 388.55 97.4277C390.735 97.4277 392.126 99.0757 392.139 101.285H384.656ZM18.7256 145.24C20.5322 145.24 21.9971 143.775 21.9971 141.944C21.9971 140.138 20.5322 138.673 18.7256 138.673C16.8945 138.673 15.4297 140.138 15.4297 141.944C15.4297 143.775 16.8945 145.24 18.7256 145.24ZM39.4531 149H41.6504V141.114H49.292V139.186H41.6504V133.277H50.0977V131.324H39.4531V149ZM53.1006 149H55.2002V135.743H53.1006V149ZM52.6855 132.154C52.6733 132.923 53.3447 133.546 54.1504 133.546C54.9561 133.546 55.6274 132.923 55.6396 132.154C55.6274 131.373 54.9561 130.75 54.1504 130.763C53.3447 130.75 52.6733 131.373 52.6855 132.154ZM63.916 154.249C67.1509 154.249 69.6655 152.784 69.6777 149.366V135.743H67.627V137.843H67.4561C66.98 137.135 66.1499 135.572 63.5742 135.572C60.2417 135.572 57.9102 138.111 57.9102 142.188C57.9102 146.363 60.3271 148.792 63.5498 148.805C66.1133 148.792 66.9556 147.291 67.4072 146.559H67.5781V149.244C67.5781 151.429 66.1865 152.418 63.916 152.418C62.0361 152.418 60.7788 151.747 60.498 150.392H58.3008C58.5327 152.845 60.7056 154.249 63.916 154.249ZM60.0342 142.262C60.0342 139.588 61.2915 137.452 63.8428 137.452C66.3086 137.452 67.6147 139.417 67.627 142.262C67.6147 145.179 66.272 146.925 63.8428 146.925C61.3281 146.925 60.0342 145.008 60.0342 142.262ZM73.0225 149H75.1221V140.724C75.1221 138.795 76.5137 137.452 78.1006 137.452C79.6265 137.452 80.7007 138.453 80.6885 139.942V149H82.8125V140.382C82.8247 138.697 83.8745 137.452 85.7178 137.452C87.1704 137.452 88.3911 138.209 88.4033 140.162V149H90.5029V140.138C90.5029 137.013 88.8062 135.572 86.4502 135.572C84.5459 135.572 83.1421 136.451 82.4707 137.818H82.3242C81.7017 136.402 80.5176 135.572 78.7842 135.572C77.0508 135.572 75.769 136.402 75.2197 137.818H75.0488V135.743H73.0225V149ZM93.2373 145.24C93.2373 147.828 95.2393 149.305 97.7539 149.317C100.061 149.305 101.27 148.084 101.709 147.193H101.807V149H103.882V140.26C103.894 136.085 100.635 135.572 98.9014 135.572C95.9717 135.572 93.8965 137.049 93.6279 139.186H95.8252C96.1182 138.172 97.1313 137.403 98.8037 137.403C100.806 137.403 101.807 138.38 101.807 140.064V141.139C101.208 141.151 99.0723 141.273 98.2178 141.334C95.9229 141.505 93.2373 142.201 93.2373 145.24ZM95.3369 145.338C95.3491 143.885 96.5576 143.214 98.4619 143.092C99.0967 143.055 101.184 142.896 101.807 142.86V144.19C101.807 145.863 100.488 147.45 98.1201 147.438C96.5088 147.45 95.3491 146.742 95.3369 145.338ZM110.01 147.364H107.642L106.299 154.005H108.105L110.01 147.364ZM120.996 131.324H118.677L125.146 149H127.466L133.936 131.324H131.616L126.392 146.144H126.196L120.996 131.324ZM136.06 149H138.159V135.743H136.06V149ZM135.645 132.154C135.632 132.923 136.304 133.546 137.109 133.546C137.915 133.546 138.586 132.923 138.599 132.154C138.586 131.373 137.915 130.75 137.109 130.763C136.304 130.75 135.632 131.373 135.645 132.154ZM148.877 139.186H150.928C150.659 137.037 148.938 135.572 146.191 135.572C143.274 135.572 141.284 137.208 141.284 139.479C141.284 141.249 142.517 142.506 144.824 143.043L146.826 143.507C148.328 143.861 148.999 144.471 148.999 145.411C148.999 146.656 147.815 147.45 145.923 147.438C144.25 147.45 143.311 146.827 143.066 145.533H140.869C141.223 147.95 142.993 149.281 145.972 149.269C149.292 149.281 151.16 147.584 151.172 145.289C151.16 143.446 150 142.262 147.632 141.7L145.654 141.212C144.104 140.833 143.396 140.235 143.384 139.356C143.396 138.246 144.556 137.367 146.191 137.354C147.742 137.367 148.584 138.087 148.877 139.186ZM162.28 143.556C162.268 146.034 160.388 147.157 158.887 147.145C157.19 147.157 156.006 145.924 156.006 144.02V135.743H153.906V144.166C153.894 147.535 155.688 149.171 158.203 149.171C160.193 149.171 161.511 148.097 162.134 146.754H162.28V149H164.355V135.743H162.28V143.556ZM167.09 145.24C167.09 147.828 169.092 149.305 171.606 149.317C173.914 149.305 175.122 148.084 175.562 147.193H175.659V149H177.734V140.26C177.747 136.085 174.487 135.572 172.754 135.572C169.824 135.572 167.749 137.049 167.48 139.186H169.678C169.971 138.172 170.984 137.403 172.656 137.403C174.658 137.403 175.659 138.38 175.659 140.064V141.139C175.061 141.151 172.925 141.273 172.07 141.334C169.775 141.505 167.09 142.201 167.09 145.24ZM169.189 145.338C169.202 143.885 170.41 143.214 172.314 143.092C172.949 143.055 175.037 142.896 175.659 142.86V144.19C175.659 145.863 174.341 147.45 171.973 147.438C170.361 147.45 169.202 146.742 169.189 145.338ZM183.203 131.324H181.104V149H183.203V131.324ZM202.734 135.768H204.883C204.797 133.082 202.332 131.08 198.901 131.08C195.471 131.08 192.81 133.045 192.822 136.036C192.81 138.429 194.543 139.845 197.314 140.65L199.487 141.236C201.343 141.761 202.979 142.42 202.979 144.142C202.979 146.07 201.147 147.328 198.706 147.315C196.606 147.328 194.763 146.388 194.58 144.41H192.334C192.542 147.34 194.897 149.305 198.706 149.317C202.808 149.305 205.127 147.071 205.127 144.19C205.127 140.882 202.014 139.796 200.122 139.308L198.364 138.819C197.021 138.49 194.958 137.794 194.946 135.938C194.958 134.254 196.484 133.033 198.828 133.033C200.94 133.033 202.551 134.034 202.734 135.768ZM213.794 135.743H211.011V132.569H208.887V135.743H206.885V137.501H208.887V145.729C208.899 148.072 210.754 149.171 212.524 149.171C213.147 149.171 213.66 149.122 213.989 149.073V147.12C213.684 147.132 213.123 147.169 212.744 147.169C211.853 147.169 210.999 146.888 211.011 145.191V137.501H213.794V135.743ZM224.878 143.556C224.866 146.034 222.986 147.157 221.484 147.145C219.788 147.157 218.604 145.924 218.604 144.02V135.743H216.504V144.166C216.492 147.535 218.286 149.171 220.801 149.171C222.791 149.171 224.109 148.097 224.731 146.754H224.878V149H226.953V135.743H224.878V143.556ZM235.327 149.269C237.854 149.281 238.721 147.706 239.185 146.974H239.404V149H241.455V131.324H239.331V137.843H239.185C238.733 137.135 237.927 135.572 235.352 135.572C232.019 135.572 229.688 138.209 229.688 142.408C229.688 146.62 232.019 149.281 235.327 149.269ZM231.812 142.359C231.812 139.588 233.069 137.452 235.62 137.452C238.086 137.452 239.392 139.417 239.404 142.359C239.392 145.338 238.049 147.389 235.62 147.389C233.105 147.389 231.812 145.179 231.812 142.359ZM245.093 149H247.192V135.743H245.093V149ZM244.678 132.154C244.666 132.923 245.337 133.546 246.143 133.546C246.948 133.546 247.62 132.923 247.632 132.154C247.62 131.373 246.948 130.75 246.143 130.763C245.337 130.75 244.666 131.373 244.678 132.154ZM255.957 149.269C259.558 149.281 261.975 146.546 261.963 142.433C261.975 138.294 259.558 135.572 255.957 135.572C252.344 135.572 249.902 138.294 249.902 142.433C249.902 146.546 252.344 149.281 255.957 149.269ZM252.002 142.433C252.014 139.796 253.259 137.428 255.957 137.428C258.63 137.428 259.863 139.796 259.863 142.433C259.863 145.082 258.63 147.413 255.957 147.413C253.259 147.413 252.014 145.082 252.002 142.433ZM283.325 136.891H285.522C284.863 133.216 281.97 131.08 278.394 131.08C273.853 131.08 270.569 134.571 270.581 140.162C270.569 145.753 273.853 149.244 278.394 149.244C281.982 149.244 284.888 147.071 285.522 143.458H283.325C282.8 145.875 280.725 147.181 278.394 147.193C275.195 147.181 272.717 144.715 272.705 140.162C272.717 135.597 275.195 133.131 278.394 133.131C280.725 133.131 282.812 134.449 283.325 136.891ZM293.75 149.269C297.351 149.281 299.768 146.546 299.756 142.433C299.768 138.294 297.351 135.572 293.75 135.572C290.137 135.572 287.695 138.294 287.695 142.433C287.695 146.546 290.137 149.281 293.75 149.269ZM289.795 142.433C289.807 139.796 291.052 137.428 293.75 137.428C296.423 137.428 297.656 139.796 297.656 142.433C297.656 145.082 296.423 147.413 293.75 147.413C291.052 147.413 289.807 145.082 289.795 142.433ZM307.52 149.269C310.046 149.281 310.913 147.706 311.377 146.974H311.597V149H313.647V131.324H311.523V137.843H311.377C310.925 137.135 310.12 135.572 307.544 135.572C304.211 135.572 301.88 138.209 301.88 142.408C301.88 146.62 304.211 149.281 307.52 149.269ZM304.004 142.359C304.004 139.588 305.261 137.452 307.812 137.452C310.278 137.452 311.584 139.417 311.597 142.359C311.584 145.338 310.242 147.389 307.812 147.389C305.298 147.389 304.004 145.179 304.004 142.359ZM322.852 149.269C325.586 149.281 327.551 147.914 328.174 145.899H325.928C325.439 146.717 324.438 147.413 322.852 147.413C320.496 147.413 318.86 145.875 318.75 143.067H328.369V142.188C328.381 137.281 325.439 135.572 322.656 135.572C319.055 135.572 316.65 138.404 316.65 142.481C316.65 146.546 319.019 149.281 322.852 149.269ZM318.762 141.285C318.909 139.234 320.361 137.428 322.656 137.428C324.841 137.428 326.233 139.076 326.245 141.285H318.762ZM333.862 147.364H331.494L330.151 154.005H331.958L333.862 147.364ZM349.146 154.249C352.38 154.249 354.895 152.784 354.907 149.366V135.743H352.856V137.843H352.686C352.209 137.135 351.379 135.572 348.804 135.572C345.471 135.572 343.14 138.111 343.14 142.188C343.14 146.363 345.557 148.792 348.779 148.805C351.343 148.792 352.185 147.291 352.637 146.559H352.808V149.244C352.808 151.429 351.416 152.418 349.146 152.418C347.266 152.418 346.008 151.747 345.728 150.392H343.53C343.762 152.845 345.935 154.249 349.146 154.249ZM345.264 142.262C345.264 139.588 346.521 137.452 349.072 137.452C351.538 137.452 352.844 139.417 352.856 142.262C352.844 145.179 351.501 146.925 349.072 146.925C346.558 146.925 345.264 145.008 345.264 142.262ZM358.252 149H360.352V135.743H358.252V149ZM357.837 132.154C357.825 132.923 358.496 133.546 359.302 133.546C360.107 133.546 360.779 132.923 360.791 132.154C360.779 131.373 360.107 130.75 359.302 130.763C358.496 130.75 357.825 131.373 357.837 132.154ZM369.482 135.743H366.699V132.569H364.575V135.743H362.573V137.501H364.575V145.729C364.587 148.072 366.443 149.171 368.213 149.171C368.835 149.171 369.348 149.122 369.678 149.073V147.12C369.373 147.132 368.811 147.169 368.433 147.169C367.542 147.169 366.687 146.888 366.699 145.191V137.501H369.482V135.743ZM374.585 141.041C374.585 138.746 376.05 137.452 378.027 137.452C379.932 137.452 381.079 138.636 381.079 140.724V149H383.179V140.577C383.179 137.171 381.372 135.572 378.662 135.572C376.562 135.572 375.378 136.451 374.756 137.818H374.585V131.324H372.485V149H374.585V141.041ZM394.922 143.556C394.91 146.034 393.03 147.157 391.528 147.145C389.832 147.157 388.647 145.924 388.647 144.02V135.743H386.548V144.166C386.536 147.535 388.33 149.171 390.845 149.171C392.834 149.171 394.153 148.097 394.775 146.754H394.922V149H396.997V135.743H394.922V143.556ZM400.635 149H402.661V146.974H402.905C403.357 147.706 404.224 149.281 406.763 149.269C410.059 149.281 412.39 146.62 412.402 142.408C412.39 138.209 410.059 135.572 406.738 135.572C404.15 135.572 403.357 137.135 402.905 137.843H402.734V131.324H400.635V149ZM402.686 142.359C402.686 139.417 404.004 137.452 406.445 137.452C409.009 137.452 410.266 139.588 410.278 142.359C410.266 145.179 408.972 147.389 406.445 147.389C404.028 147.389 402.686 145.338 402.686 142.359Z" fill="black"/>
</svg>
